<?xml version="1.0" encoding="UTF-8"?>
<!DOCTYPE svg PUBLIC "-//W3C//DTD SVG 1.1//EN" "http://www.w3.org/Graphics/SVG/1.1/DTD/svg11.dtd">
<svg xmlns="http://www.w3.org/2000/svg" version="1.1" width="500px" height="500px" style="shape-rendering:geometricPrecision; text-rendering:geometricPrecision; image-rendering:optimizeQuality; fill-rule:evenodd; clip-rule:evenodd" xmlns:xlink="http://www.w3.org/1999/xlink">
<g><path style="opacity:0.004" fill="#fefffe" d="M 147.5,6.5 C 148.833,7.16667 148.833,7.16667 147.5,6.5 Z"/></g>
<g><path style="opacity:0.004" fill="#fefffe" d="M 134.5,12.5 C 135.833,13.1667 135.833,13.1667 134.5,12.5 Z"/></g>
<g><path style="opacity:0.004" fill="#fefffe" d="M 36.5,34.5 C 37.8333,35.1667 37.8333,35.1667 36.5,34.5 Z"/></g>
<g><path style="opacity:0.004" fill="#fefffe" d="M 316.5,38.5 C 317.833,39.1667 317.833,39.1667 316.5,38.5 Z"/></g>
<g><path style="opacity:0.004" fill="#fefffe" d="M 122.5,43.5 C 123.833,44.1667 123.833,44.1667 122.5,43.5 Z"/></g>
<g><path style="opacity:0.004" fill="#fefffe" d="M 42.5,52.5 C 43.8333,53.1667 43.8333,53.1667 42.5,52.5 Z"/></g>
<g><path style="opacity:0.004" fill="#fefffe" d="M 437.5,54.5 C 438.833,55.1667 438.833,55.1667 437.5,54.5 Z"/></g>
<g><path style="opacity:0.004" fill="#fefffe" d="M 124.5,57.5 C 125.833,58.1667 125.833,58.1667 124.5,57.5 Z"/></g>
<g><path style="opacity:0.004" fill="#fefffe" d="M 447.5,57.5 C 448.833,58.1667 448.833,58.1667 447.5,57.5 Z"/></g>
<g><path style="opacity:0.004" fill="#fefffe" d="M 2.5,70.5 C 3.83333,71.1667 3.83333,71.1667 2.5,70.5 Z"/></g>
<g><path style="opacity:0.004" fill="#fefffe" d="M 147.5,74.5 C 148.833,75.1667 148.833,75.1667 147.5,74.5 Z"/></g>
<g><path style="opacity:0.004" fill="#fefffe" d="M 496.5,81.5 C 497.833,82.1667 497.833,82.1667 496.5,81.5 Z"/></g>
<g><path style="opacity:0.004" fill="#fefffe" d="M 136.5,84.5 C 137.833,85.1667 137.833,85.1667 136.5,84.5 Z"/></g>
<g><path style="opacity:0.004" fill="#fefffe" d="M 175.5,87.5 C 176.833,88.1667 176.833,88.1667 175.5,87.5 Z"/></g>
<g><path style="opacity:0.004" fill="#fefffe" d="M 245.5,87.5 C 246.833,88.1667 246.833,88.1667 245.5,87.5 Z"/></g>
<g><path style="opacity:0.004" fill="#fefffe" d="M 198.5,94.5 C 199.833,95.1667 199.833,95.1667 198.5,94.5 Z"/></g>
<g><path style="opacity:0.004" fill="#fefffe" d="M 227.5,97.5 C 228.833,98.1667 228.833,98.1667 227.5,97.5 Z"/></g>
<g><path style="opacity:0.004" fill="#fefffe" d="M 135.5,98.5 C 136.833,99.1667 136.833,99.1667 135.5,98.5 Z"/></g>
<g><path style="opacity:0.004" fill="#fefffe" d="M 47.5,104.5 C 48.8333,105.167 48.8333,105.167 47.5,104.5 Z"/></g>
<g><path style="opacity:0.004" fill="#fefffe" d="M 35.5,109.5 C 36.8333,110.167 36.8333,110.167 35.5,109.5 Z"/></g>
<g><path style="opacity:0.004" fill="#fefffe" d="M 207.5,110.5 C 208.833,111.167 208.833,111.167 207.5,110.5 Z"/></g>
<g><path style="opacity:1" fill="#fbfbf8" d="M 318.5,320.5 C 319.11,319.609 319.443,318.609 319.5,317.5C 319.567,316.041 319.234,314.708 318.5,313.5C 326.148,313.818 330.148,310.485 330.5,303.5C 335.741,295.943 340.074,287.943 343.5,279.5C 345.47,274.636 347.803,269.803 350.5,265C 349.549,261.943 349.216,258.777 349.5,255.5C 350.239,255.631 350.906,255.464 351.5,255C 350.852,252.153 350.519,249.319 350.5,246.5C 350,246.167 349.5,245.833 349,245.5C 347.202,246.504 345.368,247.004 343.5,247C 344.833,246.333 344.833,245.667 343.5,245C 345.708,244.809 347.708,244.309 349.5,243.5C 349.5,239.833 349.5,236.167 349.5,232.5C 349.923,231.735 350.257,230.902 350.5,230C 348.811,226.802 347.478,223.469 346.5,220C 346.918,217.237 347.584,214.57 348.5,212C 344.939,209.104 342.106,205.604 340,201.5C 339.329,200.748 338.496,200.414 337.5,200.5C 337.5,199.833 337.167,199.5 336.5,199.5C 335.277,195.951 333.277,192.951 330.5,190.5C 329.62,186.887 327.62,185.553 324.5,186.5C 323.448,186.351 322.448,186.517 321.5,187C 319.796,189.959 317.462,191.125 314.5,190.5C 314.863,189.817 315.196,189.15 315.5,188.5C 316.833,186.833 318.167,185.167 319.5,183.5C 319.5,182.833 319.833,182.5 320.5,182.5C 321.808,180.362 321.475,178.362 319.5,176.5C 318.637,175.06 318.637,173.726 319.5,172.5C 318.369,171.396 317.535,171.729 317,173.5C 315.049,171.863 315.216,170.363 317.5,169C 316.027,168.29 315.36,167.124 315.5,165.5C 312.833,166.833 310.167,166.833 307.5,165.5C 307.5,164.5 307.5,163.5 307.5,162.5C 305.5,162.5 303.5,162.5 301.5,162.5C 300.656,160.241 298.989,159.241 296.5,159.5C 295.833,159.5 295.5,159.167 295.5,158.5C 294.277,156.228 292.277,155.061 289.5,155C 287.286,153.191 284.952,151.524 282.5,150C 281.207,149.51 279.873,149.343 278.5,149.5C 277.426,148.115 276.093,146.949 274.5,146C 275.624,145.751 276.624,145.251 277.5,144.5C 274.893,143.682 272.226,143.182 269.5,143C 267.568,140.858 265.235,139.358 262.5,138.5C 262.167,137.833 261.833,137.167 261.5,136.5C 261.955,134.633 262.622,132.8 263.5,131C 263.167,130.167 262.833,129.333 262.5,128.5C 261.833,129.833 261.167,131.167 260.5,132.5C 258.929,131.691 257.262,131.357 255.5,131.5C 255.666,139.84 255.5,148.173 255,156.5C 253.947,163.602 253.113,170.602 252.5,177.5C 252.829,163.323 252.496,149.323 251.5,135.5C 251.719,134.325 251.386,133.325 250.5,132.5C 248.59,136.739 245.924,140.406 242.5,143.5C 238.544,145.485 234.878,147.985 231.5,151C 227.29,152.609 223.29,154.442 219.5,156.5C 218.833,156.5 218.167,156.5 217.5,156.5C 211.133,158.206 205.466,161.206 200.5,165.5C 199.252,164.96 198.085,164.293 197,163.5C 196.802,165.382 196.302,167.048 195.5,168.5C 195.539,167.244 195.039,166.244 194,165.5C 191.867,167.091 190.201,169.091 189,171.5C 188.945,169.115 187.778,167.781 185.5,167.5C 181.532,168.644 178.532,170.977 176.5,174.5C 174.829,167.853 174.496,161.186 175.5,154.5C 172.365,154.452 170.698,152.785 170.5,149.5C 169.304,149.846 169.304,150.346 170.5,151C 168.202,152.086 166.202,153.586 164.5,155.5C 164.709,156.086 165.043,156.586 165.5,157C 164.167,157.333 162.833,157.667 161.5,158C 164.574,161.806 163.574,163.639 158.5,163.5C 158.649,162.448 158.483,161.448 158,160.5C 157.626,162.898 157.626,165.231 158,167.5C 155.871,166.137 155.371,166.471 156.5,168.5C 154.547,169.69 152.713,171.024 151,172.5C 150.383,173.449 150.549,174.282 151.5,175C 149.568,176.352 148.234,178.185 147.5,180.5C 146.998,181.521 146.332,181.688 145.5,181C 146.26,179.559 146.926,178.059 147.5,176.5C 147.03,175.537 146.363,175.537 145.5,176.5C 147.307,172.886 149.14,169.22 151,165.5C 164.744,146.358 182.244,131.524 203.5,121C 251.504,102.033 295.504,108.7 335.5,141C 366.734,171.004 380.901,207.838 378,251.5C 372.146,303.159 345.312,338.826 297.5,358.5C 296.068,358.267 295.568,357.6 296,356.5C 306.79,346.593 314.29,334.593 318.5,320.5 Z"/></g>
<g><path style="opacity:0.004" fill="#fefffe" d="M 6.5,117.5 C 7.83333,118.167 7.83333,118.167 6.5,117.5 Z"/></g>
<g><path style="opacity:0.004" fill="#fefffe" d="M 36.5,117.5 C 37.8333,118.167 37.8333,118.167 36.5,117.5 Z"/></g>
<g><path style="opacity:0.004" fill="#fefffe" d="M 434.5,120.5 C 435.833,121.167 435.833,121.167 434.5,120.5 Z"/></g>
<g><path style="opacity:0.004" fill="#fefffe" d="M 373.5,124.5 C 374.833,125.167 374.833,125.167 373.5,124.5 Z"/></g>
<g><path style="opacity:0.004" fill="#fefffe" d="M 458.5,131.5 C 459.833,132.167 459.833,132.167 458.5,131.5 Z"/></g>
<g><path style="opacity:1" fill="#ec8737" d="M 262.5,139.5 C 264.167,140.5 265.5,141.833 266.5,143.5C 263.728,142.629 261.062,142.629 258.5,143.5C 258.201,141.396 258.534,139.396 259.5,137.5C 260.518,138.193 261.518,138.859 262.5,139.5 Z"/></g>
<g><path style="opacity:0.004" fill="#fefffe" d="M 388.5,140.5 C 389.833,141.167 389.833,141.167 388.5,140.5 Z"/></g>
<g><path style="opacity:1" fill="#fcf5e4" d="M 262.5,139.5 C 262.5,139.167 262.5,138.833 262.5,138.5C 265.235,139.358 267.568,140.858 269.5,143C 272.226,143.182 274.893,143.682 277.5,144.5C 276.624,145.251 275.624,145.751 274.5,146C 276.093,146.949 277.426,148.115 278.5,149.5C 276.901,149.768 275.568,149.434 274.5,148.5C 274.027,147.094 273.027,146.427 271.5,146.5C 269.589,145.925 267.922,144.925 266.5,143.5C 265.5,141.833 264.167,140.5 262.5,139.5 Z"/></g>
<g><path style="opacity:0.004" fill="#fefffe" d="M 58.5,144.5 C 59.8333,145.167 59.8333,145.167 58.5,144.5 Z"/></g>
<g><path style="opacity:0.004" fill="#fefffe" d="M 132.5,147.5 C 133.833,148.167 133.833,148.167 132.5,147.5 Z"/></g>
<g><path style="opacity:1" fill="#f8c2a0" d="M 271.5,146.5 C 273.027,146.427 274.027,147.094 274.5,148.5C 272.973,148.573 271.973,147.906 271.5,146.5 Z"/></g>
<g><path style="opacity:1" fill="#fde5d1" d="M 278.5,149.5 C 279.873,149.343 281.207,149.51 282.5,150C 284.952,151.524 287.286,153.191 289.5,155C 292.277,155.061 294.277,156.228 295.5,158.5C 294.833,158.5 294.167,158.5 293.5,158.5C 293.027,157.094 292.027,156.427 290.5,156.5C 289.391,156.443 288.391,156.11 287.5,155.5C 285.337,153.917 283.004,152.584 280.5,151.5C 279.5,151.167 278.833,150.5 278.5,149.5 Z"/></g>
<g><path style="opacity:0.999" fill="#fbfbf9" d="M 195.5,168.5 C 193.746,171.26 191.412,173.26 188.5,174.5C 186.429,177.025 185.095,180.025 184.5,183.5C 182.696,184.768 180.696,185.435 178.5,185.5C 178.167,187.5 177.833,189.5 177.5,191.5C 176.5,191.5 175.5,191.5 174.5,191.5C 170.595,197.313 167.762,203.647 166,210.5C 164.667,211.167 163.667,212.167 163,213.5C 161.691,218.066 161.191,222.733 161.5,227.5C 160.725,232.797 160.392,238.13 160.5,243.5C 170.015,243.827 179.348,243.494 188.5,242.5C 188.374,237.778 189.374,233.445 191.5,229.5C 196.028,222.627 199.695,215.294 202.5,207.5C 204.225,207.157 204.725,206.157 204,204.5C 202.167,202.167 200.333,199.833 198.5,197.5C 201.675,196.613 203.342,197.946 203.5,201.5C 205.582,201.472 207.416,202.139 209,203.5C 210.444,199.538 213.277,197.538 217.5,197.5C 216.833,199.833 216.167,202.167 215.5,204.5C 214.833,204.833 214.167,205.167 213.5,205.5C 212.839,206.718 212.172,208.051 211.5,209.5C 206.335,210.438 202.835,213.438 201,218.5C 199.54,222.536 197.873,226.536 196,230.5C 195.501,236.157 195.334,241.824 195.5,247.5C 194.562,256.289 195.895,264.623 199.5,272.5C 198.917,274.002 198.084,275.335 197,276.5C 193.678,267.51 190.844,258.51 188.5,249.5C 179.167,248.167 169.833,248.167 160.5,249.5C 159.355,253.311 159.188,257.311 160,261.5C 161.643,267.409 162.977,273.409 164,279.5C 165.113,280.305 166.279,280.972 167.5,281.5C 171.117,289.336 175.117,297.003 179.5,304.5C 180.966,307.247 181.799,310.247 182,313.5C 183.664,311.195 185.164,311.528 186.5,314.5C 185.674,315.451 185.508,316.451 186,317.5C 186.986,316.829 188.153,316.829 189.5,317.5C 190.048,319.394 191.048,321.06 192.5,322.5C 196.697,325.43 200.697,328.597 204.5,332C 208.97,334.069 213.303,336.402 217.5,339C 219.473,339.495 221.473,339.662 223.5,339.5C 225.216,339.629 226.883,339.962 228.5,340.5C 231.672,342.252 234.672,344.252 237.5,346.5C 238.845,348.697 240.011,351.03 241,353.5C 241.414,353.043 241.914,352.709 242.5,352.5C 243.108,356.103 245.108,358.436 248.5,359.5C 249.674,360.514 250.34,361.847 250.5,363.5C 250.56,364.043 250.893,364.376 251.5,364.5C 252.499,347.847 252.833,331.18 252.5,314.5C 253.376,314.369 254.043,314.702 254.5,315.5C 253.648,323.874 253.315,332.208 253.5,340.5C 253.732,342.798 254.399,344.965 255.5,347C 255.05,348.285 254.383,349.452 253.5,350.5C 254.274,354.779 254.774,359.113 255,363.5C 255.667,364.167 256.333,364.833 257,365.5C 258.268,365.384 259.602,365.051 261,364.5C 261.483,365.448 261.649,366.448 261.5,367.5C 258.172,372.148 255.339,377.148 253,382.5C 251.989,383.337 250.822,383.67 249.5,383.5C 247.673,377.15 244.006,371.984 238.5,368C 215.249,361.373 193.915,351.039 174.5,337C 161.673,325.687 151.34,312.52 143.5,297.5C 143.276,295.213 142.609,293.047 141.5,291C 141.982,287.452 142.649,283.952 143.5,280.5C 138.911,275.862 136.578,270.196 136.5,263.5C 135.808,264.025 135.308,264.692 135,265.5C 134.138,263.913 133.471,262.246 133,260.5C 132.667,260.833 132.333,261.167 132,261.5C 131.713,259.109 131.213,256.776 130.5,254.5C 131.279,249.887 131.779,245.22 132,240.5C 132.333,243.833 132.667,247.167 133,250.5C 132.98,243.03 133.813,235.697 135.5,228.5C 133.765,225.685 133.265,222.685 134,219.5C 134.741,218.359 135.575,218.359 136.5,219.5C 138.744,215.379 139.077,211.046 137.5,206.5C 138.935,205.071 139.935,203.405 140.5,201.5C 139.785,198.781 139.451,196.114 139.5,193.5C 139.846,192.304 140.346,192.304 141,193.5C 141.251,191.567 141.751,189.734 142.5,188C 140.071,187.549 139.904,186.715 142,185.5C 143.057,187.219 143.89,189.053 144.5,191C 146.259,191.798 147.926,191.631 149.5,190.5C 146.142,187.5 144.142,183.833 143.5,179.5C 143.427,177.973 144.094,176.973 145.5,176.5C 146.363,175.537 147.03,175.537 147.5,176.5C 146.926,178.059 146.26,179.559 145.5,181C 146.332,181.688 146.998,181.521 147.5,180.5C 148.234,178.185 149.568,176.352 151.5,175C 150.549,174.282 150.383,173.449 151,172.5C 152.713,171.024 154.547,169.69 156.5,168.5C 155.371,166.471 155.871,166.137 158,167.5C 157.626,165.231 157.626,162.898 158,160.5C 158.483,161.448 158.649,162.448 158.5,163.5C 163.574,163.639 164.574,161.806 161.5,158C 162.833,157.667 164.167,157.333 165.5,157C 165.043,156.586 164.709,156.086 164.5,155.5C 166.202,153.586 168.202,152.086 170.5,151C 169.304,150.346 169.304,149.846 170.5,149.5C 170.698,152.785 172.365,154.452 175.5,154.5C 174.496,161.186 174.829,167.853 176.5,174.5C 178.532,170.977 181.532,168.644 185.5,167.5C 187.778,167.781 188.945,169.115 189,171.5C 190.201,169.091 191.867,167.091 194,165.5C 195.039,166.244 195.539,167.244 195.5,168.5 Z"/></g>
<g><path style="opacity:1" fill="#93bd92" d="M 242.5,143.5 C 236.832,151.172 229.166,155.506 219.5,156.5C 223.29,154.442 227.29,152.609 231.5,151C 234.878,147.985 238.544,145.485 242.5,143.5 Z"/></g>
<g><path style="opacity:1" fill="#e2f4df" d="M 251.5,135.5 C 252.496,149.323 252.829,163.323 252.5,177.5C 252.5,178.833 252.5,180.167 252.5,181.5C 246.65,183.133 240.65,184.633 234.5,186C 232.68,186.2 231.347,187.034 230.5,188.5C 227.779,188.963 225.112,189.629 222.5,190.5C 229.078,186.529 236.078,183.529 243.5,181.5C 245.833,181.5 248.167,181.5 250.5,181.5C 251.496,166.342 251.83,151.009 251.5,135.5 Z"/></g>
<g><path style="opacity:1" fill="#eb7a43" d="M 266.5,143.5 C 267.922,144.925 269.589,145.925 271.5,146.5C 271.973,147.906 272.973,148.573 274.5,148.5C 275.568,149.434 276.901,149.768 278.5,149.5C 278.833,150.5 279.5,151.167 280.5,151.5C 280.833,152.167 281.167,152.833 281.5,153.5C 280.183,153.179 278.849,152.846 277.5,152.5C 274.87,153.378 272.203,154.045 269.5,154.5C 269.357,152.738 269.691,151.071 270.5,149.5C 268.167,148.168 266.834,146.168 266.5,143.5 Z"/></g>
<g><path style="opacity:0.999" fill="#96bc97" d="M 251.5,135.5 C 251.83,151.009 251.496,166.342 250.5,181.5C 250.5,167.5 250.5,153.5 250.5,139.5C 247.846,140.811 245.179,142.145 242.5,143.5C 245.924,140.406 248.59,136.739 250.5,132.5C 251.386,133.325 251.719,134.325 251.5,135.5 Z"/></g>
<g><path style="opacity:1" fill="#f27438" d="M 266.5,143.5 C 266.834,146.168 268.167,148.168 270.5,149.5C 269.691,151.071 269.357,152.738 269.5,154.5C 272.203,154.045 274.87,153.378 277.5,152.5C 278.849,152.846 280.183,153.179 281.5,153.5C 282.167,153.5 282.5,153.833 282.5,154.5C 280.019,155.258 277.352,155.258 274.5,154.5C 274.5,155.5 274.5,156.5 274.5,157.5C 268.295,155.573 266.628,157.406 269.5,163C 267.629,166.313 267.629,169.813 269.5,173.5C 268.147,174.524 267.48,175.857 267.5,177.5C 268.833,177.5 270.167,177.5 271.5,177.5C 269.478,179.693 266.811,180.693 263.5,180.5C 261.833,180.5 260.167,180.5 258.5,180.5C 258.5,168.167 258.5,155.833 258.5,143.5C 261.062,142.629 263.728,142.629 266.5,143.5 Z"/></g>
<g><path style="opacity:1" fill="#de8c63" d="M 280.5,151.5 C 283.004,152.584 285.337,153.917 287.5,155.5C 285.784,155.371 284.117,155.038 282.5,154.5C 282.5,153.833 282.167,153.5 281.5,153.5C 281.167,152.833 280.833,152.167 280.5,151.5 Z"/></g>
<g><path style="opacity:0.004" fill="#fefffe" d="M 149.5,154.5 C 150.833,155.167 150.833,155.167 149.5,154.5 Z"/></g>
<g><path style="opacity:0.004" fill="#fefffe" d="M 471.5,156.5 C 472.833,157.167 472.833,157.167 471.5,156.5 Z"/></g>
<g><path style="opacity:1" fill="#78b576" d="M 250.5,181.5 C 248.167,181.5 245.833,181.5 243.5,181.5C 239.818,181.335 236.152,181.501 232.5,182C 229.134,185.183 225.134,187.016 220.5,187.5C 217.951,188.75 216.618,190.75 216.5,193.5C 214.445,195.555 212.112,197.221 209.5,198.5C 209.5,197.5 209.5,196.5 209.5,195.5C 210.675,195.719 211.675,195.386 212.5,194.5C 212.468,192.308 212.302,189.974 212,187.5C 212.583,189.002 213.416,190.335 214.5,191.5C 216.86,188.473 219.527,185.806 222.5,183.5C 224.248,185.993 225.914,185.827 227.5,183C 223.5,181 219.5,179 215.5,177C 216.451,176.282 216.617,175.449 216,174.5C 213.333,177.167 210.667,177.167 208,174.5C 206.612,175.554 205.112,175.72 203.5,175C 205.833,173.333 207.833,171.333 209.5,169C 214.023,167.148 218.023,164.482 221.5,161C 223.392,160.027 225.392,159.36 227.5,159C 226.4,157.977 225.067,157.477 223.5,157.5C 221.307,157.719 219.307,158.385 217.5,159.5C 218.167,158.5 218.833,157.5 219.5,156.5C 229.166,155.506 236.832,151.172 242.5,143.5C 245.179,142.145 247.846,140.811 250.5,139.5C 250.5,153.5 250.5,167.5 250.5,181.5 Z"/></g>
<g><path style="opacity:1" fill="#e3987d" d="M 290.5,157.5 C 290.5,157.167 290.5,156.833 290.5,156.5C 292.027,156.427 293.027,157.094 293.5,158.5C 292.391,158.443 291.391,158.11 290.5,157.5 Z"/></g>
<g><path style="opacity:1" fill="#fdfaf0" d="M 261.5,136.5 C 260.833,136.167 260.167,135.833 259.5,135.5C 259.585,134.005 258.919,133.005 257.5,132.5C 256.501,148.82 256.167,165.153 256.5,181.5C 255.167,181.5 253.833,181.5 252.5,181.5C 252.5,180.167 252.5,178.833 252.5,177.5C 253.113,170.602 253.947,163.602 255,156.5C 255.5,148.173 255.666,139.84 255.5,131.5C 257.262,131.357 258.929,131.691 260.5,132.5C 261.167,131.167 261.833,129.833 262.5,128.5C 262.833,129.333 263.167,130.167 263.5,131C 262.622,132.8 261.955,134.633 261.5,136.5 Z"/></g>
<g><path style="opacity:1" fill="#fbd4c0" d="M 296.5,159.5 C 298.989,159.241 300.656,160.241 301.5,162.5C 299.566,161.89 297.899,160.89 296.5,159.5 Z"/></g>
<g><path style="opacity:1" fill="#df824f" d="M 259.5,135.5 C 260.167,135.833 260.833,136.167 261.5,136.5C 261.833,137.167 262.167,137.833 262.5,138.5C 262.5,138.833 262.5,139.167 262.5,139.5C 261.518,138.859 260.518,138.193 259.5,137.5C 258.534,139.396 258.201,141.396 258.5,143.5C 258.5,155.833 258.5,168.167 258.5,180.5C 260.167,180.5 261.833,180.5 263.5,180.5C 263.5,180.833 263.5,181.167 263.5,181.5C 261.5,181.5 259.5,181.5 257.5,181.5C 256.849,165.797 257.516,150.464 259.5,135.5 Z"/></g>
<g><path style="opacity:1" fill="#e2714f" d="M 290.5,157.5 C 291.391,158.11 292.391,158.443 293.5,158.5C 294.167,158.5 294.833,158.5 295.5,158.5C 295.5,159.167 295.833,159.5 296.5,159.5C 297.899,160.89 299.566,161.89 301.5,162.5C 302.694,163.272 303.694,164.272 304.5,165.5C 304.167,165.5 303.833,165.5 303.5,165.5C 300.658,163.983 297.658,162.983 294.5,162.5C 292.633,161.24 291.3,159.573 290.5,157.5 Z"/></g>
<g><path style="opacity:1" fill="#eff8ec" d="M 217.5,156.5 C 206.444,162.365 196.61,170.032 188,179.5C 190.131,183.817 193.298,187.484 197.5,190.5C 200.485,193.985 203.652,197.319 207,200.5C 208.301,200.361 209.134,199.695 209.5,198.5C 212.112,197.221 214.445,195.555 216.5,193.5C 218.216,191.975 220.216,190.975 222.5,190.5C 225.112,189.629 227.779,188.963 230.5,188.5C 231.239,188.369 231.906,188.536 232.5,189C 231.167,189.333 229.833,189.667 228.5,190C 228.833,190.333 229.167,190.667 229.5,191C 232.826,191.172 236.159,191.005 239.5,190.5C 239.5,190.833 239.5,191.167 239.5,191.5C 238.167,191.833 236.833,192.167 235.5,192.5C 230.712,194.059 226.379,196.393 222.5,199.5C 219.911,200.419 217.911,202.086 216.5,204.5C 216.167,204.5 215.833,204.5 215.5,204.5C 216.167,202.167 216.833,199.833 217.5,197.5C 213.277,197.538 210.444,199.538 209,203.5C 207.416,202.139 205.582,201.472 203.5,201.5C 203.342,197.946 201.675,196.613 198.5,197.5C 200.333,199.833 202.167,202.167 204,204.5C 204.725,206.157 204.225,207.157 202.5,207.5C 202.046,204.86 200.879,202.527 199,200.5C 193.842,196.043 189.009,191.209 184.5,186C 184.167,185.833 183.833,185.667 183.5,185.5C 181.812,187.854 179.812,189.854 177.5,191.5C 177.833,189.5 178.167,187.5 178.5,185.5C 180.696,185.435 182.696,184.768 184.5,183.5C 185.095,180.025 186.429,177.025 188.5,174.5C 191.412,173.26 193.746,171.26 195.5,168.5C 196.302,167.048 196.802,165.382 197,163.5C 198.085,164.293 199.252,164.96 200.5,165.5C 205.466,161.206 211.133,158.206 217.5,156.5 Z"/></g>
<g><path style="opacity:1" fill="#ef6c42" d="M 294.5,162.5 C 297.658,162.983 300.658,163.983 303.5,165.5C 303.452,168.635 301.785,170.302 298.5,170.5C 299.239,173.067 299.239,175.4 298.5,177.5C 296.821,178.782 294.987,179.782 293,180.5C 292.667,180.167 292.333,179.833 292,179.5C 290.933,180.191 289.766,180.691 288.5,181C 287.547,182.955 286.213,184.622 284.5,186C 285.252,186.671 285.586,187.504 285.5,188.5C 283.858,186.919 281.858,186.253 279.5,186.5C 274.426,184.031 269.093,182.364 263.5,181.5C 263.5,181.167 263.5,180.833 263.5,180.5C 266.811,180.693 269.478,179.693 271.5,177.5C 272.833,177.5 274.167,177.5 275.5,177.5C 275.5,178.5 275.5,179.5 275.5,180.5C 277.857,180.663 280.19,180.497 282.5,180C 283.617,178.108 285.284,177.275 287.5,177.5C 287.297,175.61 287.963,174.11 289.5,173C 288.13,171.559 287.13,169.892 286.5,168C 289.609,166.608 292.276,164.774 294.5,162.5 Z"/></g>
<g><path style="opacity:1" fill="#fdede7" d="M 301.5,162.5 C 303.5,162.5 305.5,162.5 307.5,162.5C 307.5,163.5 307.5,164.5 307.5,165.5C 310.167,166.833 312.833,166.833 315.5,165.5C 315.36,167.124 316.027,168.29 317.5,169C 315.216,170.363 315.049,171.863 317,173.5C 317.535,171.729 318.369,171.396 319.5,172.5C 318.637,173.726 318.637,175.06 319.5,176.5C 318.167,175.833 316.833,175.167 315.5,174.5C 314.167,172.833 312.833,171.167 311.5,169.5C 310.738,167.738 309.404,166.738 307.5,166.5C 306.391,166.443 305.391,166.11 304.5,165.5C 303.694,164.272 302.694,163.272 301.5,162.5 Z"/></g>
<g><path style="opacity:1" fill="#f5c5b4" d="M 307.5,166.5 C 309.404,166.738 310.738,167.738 311.5,169.5C 309.596,169.262 308.262,168.262 307.5,166.5 Z"/></g>
<g><path style="opacity:1" fill="#f0713d" d="M 282.5,154.5 C 284.117,155.038 285.784,155.371 287.5,155.5C 288.391,156.11 289.391,156.443 290.5,156.5C 290.5,156.833 290.5,157.167 290.5,157.5C 291.3,159.573 292.633,161.24 294.5,162.5C 292.276,164.774 289.609,166.608 286.5,168C 287.13,169.892 288.13,171.559 289.5,173C 287.963,174.11 287.297,175.61 287.5,177.5C 285.284,177.275 283.617,178.108 282.5,180C 280.19,180.497 277.857,180.663 275.5,180.5C 275.5,179.5 275.5,178.5 275.5,177.5C 274.167,177.5 272.833,177.5 271.5,177.5C 270.167,177.5 268.833,177.5 267.5,177.5C 267.48,175.857 268.147,174.524 269.5,173.5C 267.629,169.813 267.629,166.313 269.5,163C 266.628,157.406 268.295,155.573 274.5,157.5C 274.5,156.5 274.5,155.5 274.5,154.5C 277.352,155.258 280.019,155.258 282.5,154.5 Z"/></g>
<g><path style="opacity:1" fill="#efc4a3" d="M 259.5,135.5 C 257.516,150.464 256.849,165.797 257.5,181.5C 257.167,181.5 256.833,181.5 256.5,181.5C 256.167,165.153 256.501,148.82 257.5,132.5C 258.919,133.005 259.585,134.005 259.5,135.5 Z"/></g>
<g><path style="opacity:0.004" fill="#fefffe" d="M 135.5,172.5 C 136.833,173.167 136.833,173.167 135.5,172.5 Z"/></g>
<g><path style="opacity:1" fill="#ef6743" d="M 303.5,165.5 C 303.833,165.5 304.167,165.5 304.5,165.5C 305.473,167.3 306.473,169.134 307.5,171C 305.495,172.871 303.161,174.205 300.5,175C 304.612,176.095 307.945,178.428 310.5,182C 313.447,182.112 314.78,183.612 314.5,186.5C 311.24,187.486 309.573,189.819 309.5,193.5C 307.167,194.5 305.5,196.167 304.5,198.5C 304.5,199.167 304.167,199.5 303.5,199.5C 302.167,199.5 300.833,199.5 299.5,199.5C 298.833,199.5 298.5,199.167 298.5,198.5C 295.373,193.454 291.04,190.121 285.5,188.5C 285.586,187.504 285.252,186.671 284.5,186C 286.213,184.622 287.547,182.955 288.5,181C 289.766,180.691 290.933,180.191 292,179.5C 292.333,179.833 292.667,180.167 293,180.5C 294.987,179.782 296.821,178.782 298.5,177.5C 299.239,175.4 299.239,173.067 298.5,170.5C 301.785,170.302 303.452,168.635 303.5,165.5 Z"/></g>
<g><path style="opacity:1" fill="#86b482" d="M 217.5,156.5 C 218.167,156.5 218.833,156.5 219.5,156.5C 218.833,157.5 218.167,158.5 217.5,159.5C 211.516,162.828 205.85,166.661 200.5,171C 197.27,174.064 194.603,177.564 192.5,181.5C 193.447,183.4 194.947,184.733 197,185.5C 197.494,187.134 197.66,188.801 197.5,190.5C 193.298,187.484 190.131,183.817 188,179.5C 196.61,170.032 206.444,162.365 217.5,156.5 Z"/></g>
<g><path style="opacity:1" fill="#df796b" d="M 315.5,174.5 C 316.833,175.167 318.167,175.833 319.5,176.5C 321.475,178.362 321.808,180.362 320.5,182.5C 319.215,179.558 317.548,176.891 315.5,174.5 Z"/></g>
<g><path style="opacity:1" fill="#77b36f" d="M 209.5,198.5 C 209.134,199.695 208.301,200.361 207,200.5C 203.652,197.319 200.485,193.985 197.5,190.5C 197.66,188.801 197.494,187.134 197,185.5C 194.947,184.733 193.447,183.4 192.5,181.5C 194.603,177.564 197.27,174.064 200.5,171C 205.85,166.661 211.516,162.828 217.5,159.5C 219.307,158.385 221.307,157.719 223.5,157.5C 225.067,157.477 226.4,157.977 227.5,159C 225.392,159.36 223.392,160.027 221.5,161C 218.023,164.482 214.023,167.148 209.5,169C 207.833,171.333 205.833,173.333 203.5,175C 205.112,175.72 206.612,175.554 208,174.5C 210.667,177.167 213.333,177.167 216,174.5C 216.617,175.449 216.451,176.282 215.5,177C 219.5,179 223.5,181 227.5,183C 225.914,185.827 224.248,185.993 222.5,183.5C 219.527,185.806 216.86,188.473 214.5,191.5C 213.416,190.335 212.583,189.002 212,187.5C 212.302,189.974 212.468,192.308 212.5,194.5C 211.675,195.386 210.675,195.719 209.5,195.5C 209.5,196.5 209.5,197.5 209.5,198.5 Z"/></g>
<g><path style="opacity:1" fill="#ed6449" d="M 304.5,165.5 C 305.391,166.11 306.391,166.443 307.5,166.5C 308.262,168.262 309.596,169.262 311.5,169.5C 312.833,171.167 314.167,172.833 315.5,174.5C 317.548,176.891 319.215,179.558 320.5,182.5C 319.833,182.5 319.5,182.833 319.5,183.5C 317.589,184.075 315.922,185.075 314.5,186.5C 314.78,183.612 313.447,182.112 310.5,182C 307.945,178.428 304.612,176.095 300.5,175C 303.161,174.205 305.495,172.871 307.5,171C 306.473,169.134 305.473,167.3 304.5,165.5 Z"/></g>
<g><path style="opacity:0.004" fill="#fefffe" d="M 396.5,179.5 C 397.833,180.167 397.833,180.167 396.5,179.5 Z"/></g>
<g><path style="opacity:1" fill="#e9a585" d="M 257.5,181.5 C 259.5,181.5 261.5,181.5 263.5,181.5C 269.093,182.364 274.426,184.031 279.5,186.5C 278.833,186.5 278.167,186.5 277.5,186.5C 270.847,184.308 264.18,182.642 257.5,181.5 Z"/></g>
<g><path style="opacity:1" fill="#85b483" d="M 243.5,181.5 C 236.078,183.529 229.078,186.529 222.5,190.5C 220.216,190.975 218.216,191.975 216.5,193.5C 216.618,190.75 217.951,188.75 220.5,187.5C 225.134,187.016 229.134,185.183 232.5,182C 236.152,181.501 239.818,181.335 243.5,181.5 Z"/></g>
<g><path style="opacity:1" fill="#fbfbf7" d="M 252.5,181.5 C 253.833,181.5 255.167,181.5 256.5,181.5C 256.833,181.5 257.167,181.5 257.5,181.5C 264.18,182.642 270.847,184.308 277.5,186.5C 277.859,188.485 278.692,189.151 280,188.5C 280.749,189.635 280.583,190.635 279.5,191.5C 272.691,190.439 265.858,189.439 259,188.5C 256.967,188.506 255.134,188.839 253.5,189.5C 248.786,189.353 244.119,189.686 239.5,190.5C 236.159,191.005 232.826,191.172 229.5,191C 229.167,190.667 228.833,190.333 228.5,190C 229.833,189.667 231.167,189.333 232.5,189C 231.906,188.536 231.239,188.369 230.5,188.5C 231.347,187.034 232.68,186.2 234.5,186C 240.65,184.633 246.65,183.133 252.5,181.5 Z"/></g>
<g><path style="opacity:1" fill="#e36f5e" d="M 314.5,186.5 C 314.5,187.167 314.5,187.833 314.5,188.5C 313.197,190.142 311.864,191.809 310.5,193.5C 310.167,193.5 309.833,193.5 309.5,193.5C 309.573,189.819 311.24,187.486 314.5,186.5 Z"/></g>
<g><path style="opacity:1" fill="#dc9082" d="M 319.5,183.5 C 318.167,185.167 316.833,186.833 315.5,188.5C 315.167,188.5 314.833,188.5 314.5,188.5C 314.5,187.833 314.5,187.167 314.5,186.5C 315.922,185.075 317.589,184.075 319.5,183.5 Z"/></g>
<g><path style="opacity:1" fill="#e27d61" d="M 279.5,186.5 C 281.858,186.253 283.858,186.919 285.5,188.5C 291.04,190.121 295.373,193.454 298.5,198.5C 296.246,197.585 294.246,196.252 292.5,194.5C 288.311,191.573 283.977,188.907 279.5,186.5 Z"/></g>
<g><path style="opacity:1" fill="#a3c19e" d="M 253.5,189.5 C 253.5,189.833 253.5,190.167 253.5,190.5C 248.797,190.437 244.13,190.771 239.5,191.5C 239.5,191.167 239.5,190.833 239.5,190.5C 244.119,189.686 248.786,189.353 253.5,189.5 Z"/></g>
<g><path style="opacity:1" fill="#e37f42" d="M 261.5,190.5 C 264.553,190.111 267.22,190.777 269.5,192.5C 265.233,192.797 261.066,192.464 257,191.5C 256.502,194.817 256.335,198.15 256.5,201.5C 257.791,201.263 258.791,201.596 259.5,202.5C 258.167,202.5 256.833,202.5 255.5,202.5C 255.5,202.167 255.5,201.833 255.5,201.5C 255.5,197.833 255.5,194.167 255.5,190.5C 257.5,190.5 259.5,190.5 261.5,190.5 Z"/></g>
<g><path style="opacity:1" fill="#fdf3e6" d="M 277.5,186.5 C 278.167,186.5 278.833,186.5 279.5,186.5C 283.977,188.907 288.311,191.573 292.5,194.5C 290.088,194.244 288.421,195.244 287.5,197.5C 289.767,200.836 292.767,202.836 296.5,203.5C 296.5,205.5 296.5,207.5 296.5,209.5C 300.93,209.011 303.263,211.011 303.5,215.5C 302.833,215.167 302.167,214.833 301.5,214.5C 301.582,212.748 300.749,211.748 299,211.5C 297.251,211.748 296.418,212.748 296.5,214.5C 294.973,214.427 293.973,215.094 293.5,216.5C 291.669,217.052 290.003,217.052 288.5,216.5C 289.077,214.45 290.41,213.45 292.5,213.5C 292.433,212.041 292.766,210.708 293.5,209.5C 295.175,207.544 294.842,206.211 292.5,205.5C 290.402,202.394 287.735,200.061 284.5,198.5C 284.027,197.094 283.027,196.427 281.5,196.5C 280.508,196.672 279.842,196.338 279.5,195.5C 277.967,193.755 275.967,192.755 273.5,192.5C 272.167,192.5 270.833,192.5 269.5,192.5C 267.22,190.777 264.553,190.111 261.5,190.5C 259.393,189.532 257.059,189.198 254.5,189.5C 254.167,189.5 253.833,189.5 253.5,189.5C 255.134,188.839 256.967,188.506 259,188.5C 265.858,189.439 272.691,190.439 279.5,191.5C 280.583,190.635 280.749,189.635 280,188.5C 278.692,189.151 277.859,188.485 277.5,186.5 Z"/></g>
<g><path style="opacity:1" fill="#c5676d" d="M 330.5,190.5 C 329.185,189.524 327.852,188.524 326.5,187.5C 325.478,187.855 324.811,188.522 324.5,189.5C 323.078,190.925 321.411,191.925 319.5,192.5C 321.167,190.5 322.833,188.5 324.5,186.5C 327.62,185.553 329.62,186.887 330.5,190.5 Z"/></g>
<g><path style="opacity:0.969" fill="#f8f7f3" d="M 143.5,179.5 C 144.142,183.833 146.142,187.5 149.5,190.5C 147.926,191.631 146.259,191.798 144.5,191C 143.89,189.053 143.057,187.219 142,185.5C 139.904,186.715 140.071,187.549 142.5,188C 141.751,189.734 141.251,191.567 141,193.5C 140.346,192.304 139.846,192.304 139.5,193.5C 139.451,196.114 139.785,198.781 140.5,201.5C 139.935,203.405 138.935,205.071 137.5,206.5C 139.077,211.046 138.744,215.379 136.5,219.5C 135.575,218.359 134.741,218.359 134,219.5C 133.265,222.685 133.765,225.685 135.5,228.5C 133.813,235.697 132.98,243.03 133,250.5C 132.667,247.167 132.333,243.833 132,240.5C 131.779,245.22 131.279,249.887 130.5,254.5C 131.213,256.776 131.713,259.109 132,261.5C 132.333,261.167 132.667,260.833 133,260.5C 133.471,262.246 134.138,263.913 135,265.5C 135.308,264.692 135.808,264.025 136.5,263.5C 136.578,270.196 138.911,275.862 143.5,280.5C 142.649,283.952 141.982,287.452 141.5,291C 142.609,293.047 143.276,295.213 143.5,297.5C 129.596,271.532 125.429,243.865 131,214.5C 133.913,202.252 138.08,190.586 143.5,179.5 Z"/></g>
<g><path style="opacity:1" fill="#76af6c" d="M 253.5,190.5 C 253.5,194.5 253.5,198.5 253.5,202.5C 246.382,202.551 239.715,204.218 233.5,207.5C 228.987,208 225.32,210 222.5,213.5C 218.857,211.536 216.857,208.536 216.5,204.5C 217.911,202.086 219.911,200.419 222.5,199.5C 227.617,198.444 231.95,196.111 235.5,192.5C 236.833,192.167 238.167,191.833 239.5,191.5C 244.13,190.771 248.797,190.437 253.5,190.5 Z"/></g>
<g><path style="opacity:1" fill="#f3bea0" d="M 273.5,192.5 C 275.967,192.755 277.967,193.755 279.5,195.5C 278.833,195.5 278.167,195.5 277.5,195.5C 275.924,194.857 274.59,193.857 273.5,192.5 Z"/></g>
<g><path style="opacity:1" fill="#d06a7b" d="M 330.5,190.5 C 333.277,192.951 335.277,195.951 336.5,199.5C 333.004,197.642 331.004,194.642 330.5,190.5 Z"/></g>
<g><path style="opacity:0.004" fill="#fefffe" d="M 455.5,195.5 C 456.833,196.167 456.833,196.167 455.5,195.5 Z"/></g>
<g><path style="opacity:1" fill="#90b688" d="M 235.5,192.5 C 231.95,196.111 227.617,198.444 222.5,199.5C 226.379,196.393 230.712,194.059 235.5,192.5 Z"/></g>
<g><path style="opacity:1" fill="#ac9d5a" d="M 253.5,189.5 C 253.833,189.5 254.167,189.5 254.5,189.5C 254.183,193.702 254.517,197.702 255.5,201.5C 255.5,201.833 255.5,202.167 255.5,202.5C 254.833,202.5 254.167,202.5 253.5,202.5C 253.5,198.5 253.5,194.5 253.5,190.5C 253.5,190.167 253.5,189.833 253.5,189.5 Z"/></g>
<g><path style="opacity:1" fill="#c96a72" d="M 319.5,192.5 C 316.269,197.239 312.436,201.572 308,205.5C 307.517,206.448 307.351,207.448 307.5,208.5C 305.915,207.998 305.415,206.998 306,205.5C 310.369,200.963 314.869,196.63 319.5,192.5 Z"/></g>
<g><path style="opacity:1" fill="#f47537" d="M 269.5,192.5 C 270.833,192.5 272.167,192.5 273.5,192.5C 274.59,193.857 275.924,194.857 277.5,195.5C 279.549,197.585 281.549,199.752 283.5,202C 285.433,202.251 287.266,202.751 289,203.5C 288.719,206.057 288.886,208.724 289.5,211.5C 286.833,211.833 284.167,212.167 281.5,212.5C 280.738,210.738 279.404,209.738 277.5,209.5C 276.609,208.89 275.609,208.557 274.5,208.5C 274.027,207.094 273.027,206.427 271.5,206.5C 268.079,203.804 264.079,202.47 259.5,202.5C 258.791,201.596 257.791,201.263 256.5,201.5C 256.335,198.15 256.502,194.817 257,191.5C 261.066,192.464 265.233,192.797 269.5,192.5 Z"/></g>
<g><path style="opacity:1" fill="#f8be9b" d="M 281.5,196.5 C 283.027,196.427 284.027,197.094 284.5,198.5C 282.973,198.573 281.973,197.906 281.5,196.5 Z"/></g>
<g><path style="opacity:1" fill="#edb09b" d="M 309.5,193.5 C 309.833,193.5 310.167,193.5 310.5,193.5C 308.878,195.641 306.878,197.308 304.5,198.5C 305.5,196.167 307.167,194.5 309.5,193.5 Z"/></g>
<g><path style="opacity:1" fill="#cf9352" d="M 254.5,189.5 C 257.059,189.198 259.393,189.532 261.5,190.5C 259.5,190.5 257.5,190.5 255.5,190.5C 255.5,194.167 255.5,197.833 255.5,201.5C 254.517,197.702 254.183,193.702 254.5,189.5 Z"/></g>
<g><path style="opacity:1" fill="#6eac63" d="M 194.5,217.5 C 193.542,217.953 192.708,218.619 192,219.5C 191.424,223.488 190.091,227.155 188,230.5C 187.667,233.5 187.333,236.5 187,239.5C 186.5,240 186,240.5 185.5,241C 177.841,241.5 170.174,241.666 162.5,241.5C 162.5,238.833 162.5,236.167 162.5,233.5C 163.324,230.236 163.658,226.902 163.5,223.5C 163.833,223.5 164.167,223.5 164.5,223.5C 168.547,216.413 172.047,209.08 175,201.5C 175.494,199.866 175.66,198.199 175.5,196.5C 177.846,193.321 180.679,190.654 184,188.5C 187.934,193.924 192.767,198.59 198.5,202.5C 199.383,203.548 200.05,204.715 200.5,206C 197.824,209.52 195.824,213.354 194.5,217.5 Z"/></g>
<g><path style="opacity:1" fill="#ca8772" d="M 299.5,199.5 C 300.833,199.5 302.167,199.5 303.5,199.5C 303.167,200.167 302.833,200.833 302.5,201.5C 300.973,201.573 299.973,200.906 299.5,199.5 Z"/></g>
<g><path style="opacity:1" fill="#dd5162" d="M 324.5,189.5 C 325.675,189.281 326.675,189.614 327.5,190.5C 326.5,191.333 325.5,192.167 324.5,193C 325.451,193.718 325.617,194.551 325,195.5C 323.644,194.62 322.144,194.286 320.5,194.5C 320.509,196.308 320.009,197.975 319,199.5C 317.283,202.281 315.116,204.614 312.5,206.5C 314.596,207.592 315.929,209.259 316.5,211.5C 315.246,213.334 314.579,215.334 314.5,217.5C 313.5,216.833 312.5,216.167 311.5,215.5C 310.66,213.147 309.326,211.147 307.5,209.5C 307.5,209.167 307.5,208.833 307.5,208.5C 307.351,207.448 307.517,206.448 308,205.5C 312.436,201.572 316.269,197.239 319.5,192.5C 321.411,191.925 323.078,190.925 324.5,189.5 Z"/></g>
<g><path style="opacity:1" fill="#fcefec" d="M 324.5,186.5 C 322.833,188.5 321.167,190.5 319.5,192.5C 314.869,196.63 310.369,200.963 306,205.5C 305.415,206.998 305.915,207.998 307.5,208.5C 307.5,208.833 307.5,209.167 307.5,209.5C 305.417,207.955 303.417,206.122 301.5,204C 302.252,203.329 302.586,202.496 302.5,201.5C 302.833,200.833 303.167,200.167 303.5,199.5C 304.167,199.5 304.5,199.167 304.5,198.5C 306.878,197.308 308.878,195.641 310.5,193.5C 311.864,191.809 313.197,190.142 314.5,188.5C 314.833,188.5 315.167,188.5 315.5,188.5C 315.196,189.15 314.863,189.817 314.5,190.5C 317.462,191.125 319.796,189.959 321.5,187C 322.448,186.517 323.448,186.351 324.5,186.5 Z"/></g>
<g><path style="opacity:1" fill="#88ae7e" d="M 202.5,207.5 C 199.453,210.545 196.787,213.878 194.5,217.5C 195.824,213.354 197.824,209.52 200.5,206C 200.05,204.715 199.383,203.548 198.5,202.5C 192.767,198.59 187.934,193.924 184,188.5C 180.679,190.654 177.846,193.321 175.5,196.5C 175.893,194.716 176.559,193.05 177.5,191.5C 179.812,189.854 181.812,187.854 183.5,185.5C 183.833,185.667 184.167,185.833 184.5,186C 189.009,191.209 193.842,196.043 199,200.5C 200.879,202.527 202.046,204.86 202.5,207.5 Z"/></g>
<g><path style="opacity:1" fill="#e4f5e1" d="M 253.5,202.5 C 253.5,203.167 253.5,203.833 253.5,204.5C 249.528,205.108 245.528,205.608 241.5,206C 238.873,207.31 236.54,208.977 234.5,211C 232.527,211.495 230.527,211.662 228.5,211.5C 230.167,210.167 231.833,208.833 233.5,207.5C 239.715,204.218 246.382,202.551 253.5,202.5 Z"/></g>
<g><path style="opacity:1" fill="#fdeed8" d="M 253.5,202.5 C 254.167,202.5 254.833,202.5 255.5,202.5C 260.883,203.186 266.217,204.519 271.5,206.5C 273.027,206.427 274.027,207.094 274.5,208.5C 270.259,208.152 266.259,206.985 262.5,205C 259.518,204.502 256.518,204.335 253.5,204.5C 253.5,203.833 253.5,203.167 253.5,202.5 Z"/></g>
<g><path style="opacity:1" fill="#eea57c" d="M 255.5,202.5 C 256.833,202.5 258.167,202.5 259.5,202.5C 264.079,202.47 268.079,203.804 271.5,206.5C 266.217,204.519 260.883,203.186 255.5,202.5 Z"/></g>
<g><path style="opacity:1" fill="#e87b49" d="M 277.5,195.5 C 278.167,195.5 278.833,195.5 279.5,195.5C 279.842,196.338 280.508,196.672 281.5,196.5C 281.973,197.906 282.973,198.573 284.5,198.5C 287.735,200.061 290.402,202.394 292.5,205.5C 292.5,206.833 292.5,208.167 292.5,209.5C 291.103,211.379 289.437,213.046 287.5,214.5C 286.675,215.386 285.675,215.719 284.5,215.5C 283.167,214.833 282.167,213.833 281.5,212.5C 284.167,212.167 286.833,211.833 289.5,211.5C 288.886,208.724 288.719,206.057 289,203.5C 287.266,202.751 285.433,202.251 283.5,202C 281.549,199.752 279.549,197.585 277.5,195.5 Z"/></g>
<g><path style="opacity:1" fill="#da896b" d="M 292.5,205.5 C 294.842,206.211 295.175,207.544 293.5,209.5C 293.167,209.5 292.833,209.5 292.5,209.5C 292.5,208.167 292.5,206.833 292.5,205.5 Z"/></g>
<g><path style="opacity:1" fill="#df516b" d="M 330.5,190.5 C 331.004,194.642 333.004,197.642 336.5,199.5C 337.105,204.032 338.772,208.032 341.5,211.5C 341.932,212.71 342.599,213.71 343.5,214.5C 343.41,217.152 344.076,219.485 345.5,221.5C 346.038,223.117 346.371,224.784 346.5,226.5C 346.751,231.507 347.084,236.507 347.5,241.5C 346.5,241.5 345.5,241.5 344.5,241.5C 337.687,240.509 330.687,240.175 323.5,240.5C 323.5,238.5 323.5,236.5 323.5,234.5C 322.5,234.5 321.5,234.5 320.5,234.5C 320.665,231.15 320.498,227.817 320,224.5C 318.25,222.296 316.417,220.296 314.5,218.5C 314.5,218.167 314.5,217.833 314.5,217.5C 314.579,215.334 315.246,213.334 316.5,211.5C 315.929,209.259 314.596,207.592 312.5,206.5C 315.116,204.614 317.283,202.281 319,199.5C 320.009,197.975 320.509,196.308 320.5,194.5C 322.144,194.286 323.644,194.62 325,195.5C 325.617,194.551 325.451,193.718 324.5,193C 325.5,192.167 326.5,191.333 327.5,190.5C 326.675,189.614 325.675,189.281 324.5,189.5C 324.811,188.522 325.478,187.855 326.5,187.5C 327.852,188.524 329.185,189.524 330.5,190.5 Z"/></g>
<g><path style="opacity:1" fill="#d16678" d="M 336.5,199.5 C 337.167,199.5 337.5,199.833 337.5,200.5C 339.272,202.941 340.606,205.608 341.5,208.5C 341.5,209.5 341.5,210.5 341.5,211.5C 338.772,208.032 337.105,204.032 336.5,199.5 Z"/></g>
<g><path style="opacity:1" fill="#fdefef" d="M 337.5,200.5 C 338.496,200.414 339.329,200.748 340,201.5C 342.106,205.604 344.939,209.104 348.5,212C 347.584,214.57 346.918,217.237 346.5,220C 347.478,223.469 348.811,226.802 350.5,230C 350.257,230.902 349.923,231.735 349.5,232.5C 349.167,232.5 348.833,232.5 348.5,232.5C 348.741,230.102 348.074,228.102 346.5,226.5C 346.371,224.784 346.038,223.117 345.5,221.5C 345.59,218.848 344.924,216.515 343.5,214.5C 343.741,212.102 343.074,210.102 341.5,208.5C 340.606,205.608 339.272,202.941 337.5,200.5 Z"/></g>
<g><path style="opacity:1" fill="#e5a17d" d="M 277.5,209.5 C 279.404,209.738 280.738,210.738 281.5,212.5C 279.596,212.262 278.262,211.262 277.5,209.5 Z"/></g>
<g><path style="opacity:1" fill="#86ac7a" d="M 215.5,204.5 C 215.833,204.5 216.167,204.5 216.5,204.5C 216.857,208.536 218.857,211.536 222.5,213.5C 225.32,210 228.987,208 233.5,207.5C 231.833,208.833 230.167,210.167 228.5,211.5C 226.097,213.541 223.43,214.708 220.5,215C 217.874,211.9 215.541,208.733 213.5,205.5C 214.167,205.167 214.833,204.833 215.5,204.5 Z"/></g>
<g><path style="opacity:1" fill="#da909a" d="M 341.5,208.5 C 343.074,210.102 343.741,212.102 343.5,214.5C 342.599,213.71 341.932,212.71 341.5,211.5C 341.5,210.5 341.5,209.5 341.5,208.5 Z"/></g>
<g><path style="opacity:1" fill="#fce0d2" d="M 265.5,211.5 C 268.106,212.136 270.606,212.136 273,211.5C 273.985,213.641 275.152,215.641 276.5,217.5C 275.391,217.443 274.391,217.11 273.5,216.5C 271.131,214.318 268.465,212.651 265.5,211.5 Z"/></g>
<g><path style="opacity:1" fill="#80ac7a" d="M 175.5,196.5 C 175.66,198.199 175.494,199.866 175,201.5C 172.047,209.08 168.547,216.413 164.5,223.5C 164.857,219.737 165.69,216.07 167,212.5C 169.184,206.747 172.017,201.413 175.5,196.5 Z"/></g>
<g><path style="opacity:1" fill="#7aa964" d="M 247.5,210.5 C 249.5,210.5 251.5,210.5 253.5,210.5C 253.675,212.621 253.341,214.621 252.5,216.5C 251.5,216.5 250.5,216.5 249.5,216.5C 248.167,216.5 246.833,216.5 245.5,216.5C 244.127,216.657 242.793,216.49 241.5,216C 240.402,215.23 240.402,214.397 241.5,213.5C 243.5,212.5 245.5,211.5 247.5,210.5 Z"/></g>
<g><path style="opacity:1" fill="#c8915d" d="M 253.5,210.5 C 254.167,210.5 254.833,210.5 255.5,210.5C 255.077,212.781 255.744,214.448 257.5,215.5C 257.833,215.5 258.167,215.5 258.5,215.5C 258.5,215.833 258.5,216.167 258.5,216.5C 257.167,216.5 255.833,216.5 254.5,216.5C 253.833,216.5 253.167,216.5 252.5,216.5C 253.341,214.621 253.675,212.621 253.5,210.5 Z"/></g>
<g><path style="opacity:1" fill="#dd734a" d="M 255.5,210.5 C 258.86,210.616 262.193,210.949 265.5,211.5C 268.465,212.651 271.131,214.318 273.5,216.5C 267.972,214.436 262.305,212.769 256.5,211.5C 256.433,212.959 256.766,214.292 257.5,215.5C 255.744,214.448 255.077,212.781 255.5,210.5 Z"/></g>
<g><path style="opacity:1" fill="#db9081" d="M 301.5,214.5 C 299.833,213.167 298.167,213.167 296.5,214.5C 296.418,212.748 297.251,211.748 299,211.5C 300.749,211.748 301.582,212.748 301.5,214.5 Z"/></g>
<g><path style="opacity:1" fill="#e9f4e2" d="M 202.5,207.5 C 199.695,215.294 196.028,222.627 191.5,229.5C 192.488,225.516 193.488,221.516 194.5,217.5C 196.787,213.878 199.453,210.545 202.5,207.5 Z"/></g>
<g><path style="opacity:1" fill="#e96938" d="M 273.5,216.5 C 273.414,217.496 273.748,218.329 274.5,219C 271.788,219.738 269.455,219.071 267.5,217C 264.522,216.304 261.522,215.804 258.5,215.5C 258.167,215.5 257.833,215.5 257.5,215.5C 256.766,214.292 256.433,212.959 256.5,211.5C 262.305,212.769 267.972,214.436 273.5,216.5 Z"/></g>
<g><path style="opacity:1" fill="#f0faed" d="M 177.5,191.5 C 176.559,193.05 175.893,194.716 175.5,196.5C 172.017,201.413 169.184,206.747 167,212.5C 165.69,216.07 164.857,219.737 164.5,223.5C 164.167,223.5 163.833,223.5 163.5,223.5C 162.833,224.833 162.167,226.167 161.5,227.5C 161.191,222.733 161.691,218.066 163,213.5C 163.667,212.167 164.667,211.167 166,210.5C 167.762,203.647 170.595,197.313 174.5,191.5C 175.5,191.5 176.5,191.5 177.5,191.5 Z"/></g>
<g><path style="opacity:1" fill="#7faa72" d="M 239.5,213.5 C 240.167,213.5 240.833,213.5 241.5,213.5C 240.402,214.397 240.402,215.23 241.5,216C 242.793,216.49 244.127,216.657 245.5,216.5C 244.833,217.167 244.167,217.833 243.5,218.5C 239.341,219.412 236.008,221.578 233.5,225C 234.315,226.643 235.315,228.143 236.5,229.5C 232.309,228.662 230.309,225.996 230.5,221.5C 228.103,223.575 225.769,225.575 223.5,227.5C 223.539,226.417 223.873,225.417 224.5,224.5C 227.854,221.812 230.854,218.812 233.5,215.5C 235.5,214.833 237.5,214.167 239.5,213.5 Z"/></g>
<g><path style="opacity:1" fill="#fce5dc" d="M 292.5,209.5 C 292.833,209.5 293.167,209.5 293.5,209.5C 292.766,210.708 292.433,212.041 292.5,213.5C 290.41,213.45 289.077,214.45 288.5,216.5C 290.003,217.052 291.669,217.052 293.5,216.5C 292.375,218.129 291.041,219.629 289.5,221C 292.796,225.423 295.129,230.257 296.5,235.5C 292.269,230.715 289.269,225.048 287.5,218.5C 286.145,217.812 285.145,216.812 284.5,215.5C 285.675,215.719 286.675,215.386 287.5,214.5C 289.437,213.046 291.103,211.379 292.5,209.5 Z"/></g>
<g><path style="opacity:1" fill="#c7e6c2" d="M 245.5,216.5 C 246.833,216.5 248.167,216.5 249.5,216.5C 247.898,218.074 245.898,218.741 243.5,218.5C 244.167,217.833 244.833,217.167 245.5,216.5 Z"/></g>
<g><path style="opacity:1" fill="#f3b3b7" d="M 311.5,215.5 C 312.5,216.167 313.5,216.833 314.5,217.5C 314.5,217.833 314.5,218.167 314.5,218.5C 314.5,218.833 314.5,219.167 314.5,219.5C 312.738,218.738 311.738,217.404 311.5,215.5 Z"/></g>
<g><path style="opacity:1" fill="#cf7f8c" d="M 343.5,214.5 C 344.924,216.515 345.59,218.848 345.5,221.5C 344.076,219.485 343.41,217.152 343.5,214.5 Z"/></g>
<g><path style="opacity:0.004" fill="#fefffe" d="M 125.5,218.5 C 126.833,219.167 126.833,219.167 125.5,218.5 Z"/></g>
<g><path style="opacity:1" fill="#dc7156" d="M 258.5,216.5 C 258.5,216.167 258.5,215.833 258.5,215.5C 261.522,215.804 264.522,216.304 267.5,217C 269.455,219.071 271.788,219.738 274.5,219C 273.748,218.329 273.414,217.496 273.5,216.5C 274.391,217.11 275.391,217.443 276.5,217.5C 278.883,218.885 280.55,220.885 281.5,223.5C 280.027,222.26 278.36,221.26 276.5,220.5C 275.818,221.243 275.151,221.909 274.5,222.5C 274.158,221.662 273.492,221.328 272.5,221.5C 268.038,219.27 263.372,217.603 258.5,216.5 Z"/></g>
<g><path style="opacity:1" fill="#d76c5b" d="M 301.5,214.5 C 302.167,214.833 302.833,215.167 303.5,215.5C 304.11,216.391 304.443,217.391 304.5,218.5C 303.198,217.193 301.865,217.193 300.5,218.5C 299.719,217.271 299.219,215.938 299,214.5C 295.476,215.53 293.31,217.863 292.5,221.5C 292.668,223.171 293.335,224.504 294.5,225.5C 296.109,228.593 297.109,231.927 297.5,235.5C 297.167,235.5 296.833,235.5 296.5,235.5C 295.129,230.257 292.796,225.423 289.5,221C 291.041,219.629 292.375,218.129 293.5,216.5C 293.973,215.094 294.973,214.427 296.5,214.5C 298.167,213.167 299.833,213.167 301.5,214.5 Z"/></g>
<g><path style="opacity:0.004" fill="#fefffe" d="M 455.5,220.5 C 456.833,221.167 456.833,221.167 455.5,220.5 Z"/></g>
<g><path style="opacity:1" fill="#d97462" d="M 304.5,218.5 C 305.492,220.456 306.492,222.456 307.5,224.5C 305.025,223.313 304.025,221.313 304.5,218.5 Z"/></g>
<g><path style="opacity:1" fill="#f3bbbf" d="M 314.5,219.5 C 316.074,221.102 316.741,223.102 316.5,225.5C 314.926,223.898 314.259,221.898 314.5,219.5 Z"/></g>
<g><path style="opacity:1" fill="#f5faf1" d="M 249.5,216.5 C 250.5,216.5 251.5,216.5 252.5,216.5C 253.167,216.5 253.833,216.5 254.5,216.5C 255.681,218.067 257.347,218.901 259.5,219C 257.061,220.782 254.394,221.449 251.5,221C 253.815,219.632 253.815,218.799 251.5,218.5C 248.94,220.396 246.274,222.23 243.5,224C 241.167,224.333 238.833,224.667 236.5,225C 239.167,227 241.833,229 244.5,231C 244.167,231.333 243.833,231.667 243.5,232C 245.043,233.878 246.876,235.378 249,236.5C 249.49,237.793 249.657,239.127 249.5,240.5C 248.833,240.167 248.167,239.833 247.5,239.5C 244.457,235.456 240.791,232.123 236.5,229.5C 235.315,228.143 234.315,226.643 233.5,225C 236.008,221.578 239.341,219.412 243.5,218.5C 245.898,218.741 247.898,218.074 249.5,216.5 Z"/></g>
<g><path style="opacity:1" fill="#d5576b" d="M 314.5,219.5 C 314.5,219.167 314.5,218.833 314.5,218.5C 316.417,220.296 318.25,222.296 320,224.5C 320.498,227.817 320.665,231.15 320.5,234.5C 321.5,234.5 322.5,234.5 323.5,234.5C 323.5,236.5 323.5,238.5 323.5,240.5C 330.687,240.175 337.687,240.509 344.5,241.5C 336.5,241.5 328.5,241.5 320.5,241.5C 320.784,239.585 320.451,237.919 319.5,236.5C 319.5,236.167 319.5,235.833 319.5,235.5C 319.277,231.838 318.277,228.505 316.5,225.5C 316.741,223.102 316.074,221.102 314.5,219.5 Z"/></g>
<g><path style="opacity:1" fill="#e26144" d="M 281.5,223.5 C 282.5,223.833 283.167,224.5 283.5,225.5C 284.117,228.355 285.117,231.022 286.5,233.5C 287.329,236.469 287.495,239.469 287,242.5C 285.751,238.773 283.918,235.44 281.5,232.5C 280.833,232.167 280.167,231.833 279.5,231.5C 278.833,230.5 278.167,229.5 277.5,228.5C 275.028,227.358 274.028,225.358 274.5,222.5C 275.151,221.909 275.818,221.243 276.5,220.5C 278.36,221.26 280.027,222.26 281.5,223.5 Z"/></g>
<g><path style="opacity:1" fill="#e65b43" d="M 304.5,218.5 C 304.025,221.313 305.025,223.313 307.5,224.5C 307.5,225.833 307.5,227.167 307.5,228.5C 306.883,228.389 306.383,228.056 306,227.5C 305.667,229.833 305.333,232.167 305,234.5C 304,235.833 303,235.833 302,234.5C 301.456,231.375 300.623,228.375 299.5,225.5C 297.64,224.929 295.973,224.929 294.5,225.5C 293.335,224.504 292.668,223.171 292.5,221.5C 293.31,217.863 295.476,215.53 299,214.5C 299.219,215.938 299.719,217.271 300.5,218.5C 301.865,217.193 303.198,217.193 304.5,218.5 Z"/></g>
<g><path style="opacity:1" fill="#d6776d" d="M 307.5,224.5 C 309.074,226.102 309.741,228.102 309.5,230.5C 308.833,229.833 308.167,229.167 307.5,228.5C 307.5,227.167 307.5,225.833 307.5,224.5 Z"/></g>
<g><path style="opacity:1" fill="#7ea675" d="M 194.5,217.5 C 193.488,221.516 192.488,225.516 191.5,229.5C 189.374,233.445 188.374,237.778 188.5,242.5C 179.5,242.5 170.5,242.5 161.5,242.5C 161.19,239.287 161.523,236.287 162.5,233.5C 162.5,236.167 162.5,238.833 162.5,241.5C 170.174,241.666 177.841,241.5 185.5,241C 186,240.5 186.5,240 187,239.5C 187.333,236.5 187.667,233.5 188,230.5C 190.091,227.155 191.424,223.488 192,219.5C 192.708,218.619 193.542,217.953 194.5,217.5 Z"/></g>
<g><path style="opacity:1" fill="#d36176" d="M 272.5,222.5 C 272.5,222.167 272.5,221.833 272.5,221.5C 273.492,221.328 274.158,221.662 274.5,222.5C 274.028,225.358 275.028,227.358 277.5,228.5C 275.246,229.415 273.246,230.748 271.5,232.5C 270.791,231.596 269.791,231.263 268.5,231.5C 268.351,230.448 268.517,229.448 269,228.5C 272.39,227.372 273.557,225.372 272.5,222.5 Z"/></g>
<g><path style="opacity:1" fill="#c26577" d="M 272.5,222.5 C 273.557,225.372 272.39,227.372 269,228.5C 268.517,229.448 268.351,230.448 268.5,231.5C 269.791,231.263 270.791,231.596 271.5,232.5C 269.167,235.5 266.5,238.167 263.5,240.5C 263.5,239.167 263.5,237.833 263.5,236.5C 260.09,236.384 258.756,238.05 259.5,241.5C 259.167,241.5 258.833,241.5 258.5,241.5C 258.023,237.31 259.689,234.31 263.5,232.5C 263.5,233.5 263.5,234.5 263.5,235.5C 264.833,235.5 266.167,235.5 267.5,235.5C 267.5,234.167 267.5,232.833 267.5,231.5C 266.5,231.5 265.5,231.5 264.5,231.5C 267.291,228.479 269.958,225.479 272.5,222.5 Z"/></g>
<g><path style="opacity:1" fill="#dd8670" d="M 283.5,225.5 C 286.407,227.315 287.741,229.981 287.5,233.5C 287.167,233.5 286.833,233.5 286.5,233.5C 285.117,231.022 284.117,228.355 283.5,225.5 Z"/></g>
<g><path style="opacity:1" fill="#f4c3c6" d="M 316.5,225.5 C 318.277,228.505 319.277,231.838 319.5,235.5C 317.723,232.495 316.723,229.162 316.5,225.5 Z"/></g>
<g><path style="opacity:1" fill="#fcf7f5" d="M 254.5,216.5 C 255.833,216.5 257.167,216.5 258.5,216.5C 263.372,217.603 268.038,219.27 272.5,221.5C 272.5,221.833 272.5,222.167 272.5,222.5C 269.958,225.479 267.291,228.479 264.5,231.5C 263.833,231.5 263.5,231.833 263.5,232.5C 259.689,234.31 258.023,237.31 258.5,241.5C 260.756,244.305 262.423,243.972 263.5,240.5C 266.5,238.167 269.167,235.5 271.5,232.5C 273.246,230.748 275.246,229.415 277.5,228.5C 278.167,229.5 278.833,230.5 279.5,231.5C 279.427,233.027 280.094,234.027 281.5,234.5C 282.5,237.167 283.5,239.833 284.5,242.5C 284.414,246.857 284.08,251.19 283.5,255.5C 282.625,257.568 281.459,259.568 280,261.5C 278.989,262.337 277.822,262.67 276.5,262.5C 276.167,262.5 275.833,262.5 275.5,262.5C 273.451,259.45 270.784,257.117 267.5,255.5C 266.128,254.488 264.795,253.488 263.5,252.5C 260.971,251.095 259.304,251.928 258.5,255C 258.836,256.03 259.503,256.53 260.5,256.5C 264.409,261.119 268.742,265.285 273.5,269C 272.944,270.011 272.278,270.844 271.5,271.5C 269.973,271.427 268.973,272.094 268.5,273.5C 264.015,275.328 259.348,276.328 254.5,276.5C 254.167,276.5 253.833,276.5 253.5,276.5C 253.5,276.167 253.5,275.833 253.5,275.5C 252.546,268.065 251.212,260.731 249.5,253.5C 251.167,252.833 252.833,252.167 254.5,251.5C 254.833,251.5 255.167,251.5 255.5,251.5C 259.604,244.52 257.604,241.52 249.5,242.5C 249.5,241.833 249.5,241.167 249.5,240.5C 249.657,239.127 249.49,237.793 249,236.5C 246.876,235.378 245.043,233.878 243.5,232C 243.833,231.667 244.167,231.333 244.5,231C 241.833,229 239.167,227 236.5,225C 238.833,224.667 241.167,224.333 243.5,224C 246.274,222.23 248.94,220.396 251.5,218.5C 253.815,218.799 253.815,219.632 251.5,221C 254.394,221.449 257.061,220.782 259.5,219C 257.347,218.901 255.681,218.067 254.5,216.5 Z"/></g>
<g><path style="opacity:1" fill="#f1b49d" d="M 279.5,231.5 C 280.167,231.833 280.833,232.167 281.5,232.5C 281.5,233.167 281.5,233.833 281.5,234.5C 280.094,234.027 279.427,233.027 279.5,231.5 Z"/></g>
<g><path style="opacity:1" fill="#7aaa6c" d="M 223.5,227.5 C 223.07,232.496 224.403,233.33 227.5,230C 228.793,229.51 230.127,229.343 231.5,229.5C 232.03,232.682 233.03,235.682 234.5,238.5C 235.5,238.5 236.5,238.5 237.5,238.5C 237.5,239.5 237.5,240.5 237.5,241.5C 246.205,241.864 246.705,239.864 239,235.5C 237.878,233.593 237.045,231.593 236.5,229.5C 240.791,232.123 244.457,235.456 247.5,239.5C 246.918,240.931 246.085,242.264 245,243.5C 244.211,245.712 244.378,247.712 245.5,249.5C 245.5,250.167 245.5,250.833 245.5,251.5C 243.952,251.821 243.285,252.821 243.5,254.5C 242.732,253.737 242.232,252.737 242,251.5C 241.329,250.748 240.496,250.414 239.5,250.5C 237.732,247.297 236.232,243.963 235,240.5C 234.051,238.907 232.885,237.574 231.5,236.5C 228.137,229.817 226.137,230.484 225.5,238.5C 225.5,239.167 225.167,239.5 224.5,239.5C 223.691,241.292 223.191,243.292 223,245.5C 221.644,246.38 220.144,246.714 218.5,246.5C 218.505,242.466 218.838,238.466 219.5,234.5C 220.079,231.669 221.412,229.336 223.5,227.5 Z"/></g>
<g><path style="opacity:1" fill="#dff1d6" d="M 231.5,236.5 C 228.758,234.97 226.758,235.636 225.5,238.5C 226.137,230.484 228.137,229.817 231.5,236.5 Z"/></g>
<g><path style="opacity:1" fill="#c74f6b" d="M 264.5,231.5 C 265.5,231.5 266.5,231.5 267.5,231.5C 267.5,232.833 267.5,234.167 267.5,235.5C 266.167,235.5 264.833,235.5 263.5,235.5C 263.5,234.5 263.5,233.5 263.5,232.5C 263.5,231.833 263.833,231.5 264.5,231.5 Z"/></g>
<g><path style="opacity:0.004" fill="#fefffe" d="M 94.5,235.5 C 95.8333,236.167 95.8333,236.167 94.5,235.5 Z"/></g>
<g><path style="opacity:1" fill="#f7f9fa" d="M 216.5,250.5 C 216.728,252.355 216.061,253.188 214.5,253C 212.996,251.509 212.163,249.676 212,247.5C 211.838,241.794 212.338,236.127 213.5,230.5C 217.093,229.57 218.759,227.237 218.5,223.5C 219.833,223.5 221.167,223.5 222.5,223.5C 220.968,227.569 219.134,231.569 217,235.5C 216.501,240.489 216.334,245.489 216.5,250.5 Z"/></g>
<g><path style="opacity:1" fill="#6fae5c" d="M 236.5,229.5 C 237.045,231.593 237.878,233.593 239,235.5C 246.705,239.864 246.205,241.864 237.5,241.5C 237.5,240.5 237.5,239.5 237.5,238.5C 236.5,238.5 235.5,238.5 234.5,238.5C 233.03,235.682 232.03,232.682 231.5,229.5C 230.127,229.343 228.793,229.51 227.5,230C 224.403,233.33 223.07,232.496 223.5,227.5C 225.769,225.575 228.103,223.575 230.5,221.5C 230.309,225.996 232.309,228.662 236.5,229.5 Z"/></g>
<g><path style="opacity:1" fill="#e05e68" d="M 263.5,240.5 C 262.292,241.234 260.959,241.567 259.5,241.5C 258.756,238.05 260.09,236.384 263.5,236.5C 263.5,237.833 263.5,239.167 263.5,240.5 Z"/></g>
<g><path style="opacity:1" fill="#eef8ed" d="M 213.5,205.5 C 215.541,208.733 217.874,211.9 220.5,215C 223.43,214.708 226.097,213.541 228.5,211.5C 228.384,214.91 230.05,216.244 233.5,215.5C 230.854,218.812 227.854,221.812 224.5,224.5C 223.873,225.417 223.539,226.417 223.5,227.5C 221.412,229.336 220.079,231.669 219.5,234.5C 218.732,235.263 218.232,236.263 218,237.5C 217.501,241.821 217.334,246.154 217.5,250.5C 217.167,250.5 216.833,250.5 216.5,250.5C 216.334,245.489 216.501,240.489 217,235.5C 219.134,231.569 220.968,227.569 222.5,223.5C 221.167,223.5 219.833,223.5 218.5,223.5C 218.759,227.237 217.093,229.57 213.5,230.5C 214.381,227.071 216.048,224.071 218.5,221.5C 215.471,218.141 212.471,214.808 209.5,211.5C 204.984,215.201 201.984,219.868 200.5,225.5C 197.086,232.33 195.753,239.663 196.5,247.5C 196.167,247.5 195.833,247.5 195.5,247.5C 195.334,241.824 195.501,236.157 196,230.5C 197.873,226.536 199.54,222.536 201,218.5C 202.835,213.438 206.335,210.438 211.5,209.5C 212.172,208.051 212.839,206.718 213.5,205.5 Z"/></g>
<g><path style="opacity:1" fill="#82ae84" d="M 200.5,225.5 C 200.253,232.644 199.253,239.644 197.5,246.5C 197.5,246.833 197.5,247.167 197.5,247.5C 197.167,247.5 196.833,247.5 196.5,247.5C 195.753,239.663 197.086,232.33 200.5,225.5 Z"/></g>
<g><path style="opacity:1" fill="#7faa7b" d="M 213.5,230.5 C 210.982,235.073 209.982,240.073 210.5,245.5C 210.167,245.5 209.833,245.5 209.5,245.5C 209.334,241.486 209.501,237.486 210,233.5C 212.587,228.818 214.087,223.818 214.5,218.5C 211.912,218.457 209.746,217.457 208,215.5C 205.723,219.08 203.223,222.414 200.5,225.5C 201.984,219.868 204.984,215.201 209.5,211.5C 212.471,214.808 215.471,218.141 218.5,221.5C 216.048,224.071 214.381,227.071 213.5,230.5 Z"/></g>
<g><path style="opacity:1" fill="#6cab69" d="M 209.5,245.5 C 205.6,246.43 201.6,246.763 197.5,246.5C 199.253,239.644 200.253,232.644 200.5,225.5C 203.223,222.414 205.723,219.08 208,215.5C 209.746,217.457 211.912,218.457 214.5,218.5C 214.087,223.818 212.587,228.818 210,233.5C 209.501,237.486 209.334,241.486 209.5,245.5 Z"/></g>
<g><path style="opacity:1" fill="#e45747" d="M 307.5,228.5 C 308.167,229.167 308.833,229.833 309.5,230.5C 309.833,231.167 310.167,231.833 310.5,232.5C 310.5,237.167 310.5,241.833 310.5,246.5C 308.459,246.146 306.626,246.146 305,246.5C 303.676,245.12 302.343,244.786 301,245.5C 300.802,243.618 300.302,241.952 299.5,240.5C 299.158,239.662 298.492,239.328 297.5,239.5C 297.5,238.167 297.5,236.833 297.5,235.5C 297.109,231.927 296.109,228.593 294.5,225.5C 295.973,224.929 297.64,224.929 299.5,225.5C 300.623,228.375 301.456,231.375 302,234.5C 303,235.833 304,235.833 305,234.5C 305.333,232.167 305.667,229.833 306,227.5C 306.383,228.056 306.883,228.389 307.5,228.5 Z"/></g>
<g><path style="opacity:1" fill="#da644f" d="M 281.5,232.5 C 283.918,235.44 285.751,238.773 287,242.5C 287.495,239.469 287.329,236.469 286.5,233.5C 286.833,233.5 287.167,233.5 287.5,233.5C 289.104,234.287 289.771,235.62 289.5,237.5C 289.662,239.527 289.495,241.527 289,243.5C 288.29,244.973 287.124,245.64 285.5,245.5C 285.737,244.209 285.404,243.209 284.5,242.5C 283.5,239.833 282.5,237.167 281.5,234.5C 281.5,233.833 281.5,233.167 281.5,232.5 Z"/></g>
<g><path style="opacity:1" fill="#fafbf9" d="M 231.5,236.5 C 230.821,243.458 233.321,248.792 239,252.5C 240.187,259.272 241.687,265.938 243.5,272.5C 238.789,269.971 234.456,266.804 230.5,263C 229.139,261.416 228.472,259.582 228.5,257.5C 229.675,257.719 230.675,257.386 231.5,256.5C 228.366,254.356 226.533,251.356 226,247.5C 225.79,249.058 225.29,250.391 224.5,251.5C 224.5,247.5 224.5,243.5 224.5,239.5C 225.167,239.5 225.5,239.167 225.5,238.5C 226.758,235.636 228.758,234.97 231.5,236.5 Z"/></g>
<g><path style="opacity:1" fill="#fcf7f3" d="M 253.5,204.5 C 256.518,204.335 259.518,204.502 262.5,205C 266.259,206.985 270.259,208.152 274.5,208.5C 275.609,208.557 276.609,208.89 277.5,209.5C 278.262,211.262 279.596,212.262 281.5,212.5C 282.167,213.833 283.167,214.833 284.5,215.5C 285.145,216.812 286.145,217.812 287.5,218.5C 289.269,225.048 292.269,230.715 296.5,235.5C 296.833,235.5 297.167,235.5 297.5,235.5C 297.5,236.833 297.5,238.167 297.5,239.5C 298.056,247.443 297.056,255.109 294.5,262.5C 292.974,263.105 291.974,264.271 291.5,266C 290.552,266.483 289.552,266.649 288.5,266.5C 288.328,264.508 288.995,262.842 290.5,261.5C 289.873,260.583 289.539,259.583 289.5,258.5C 290.644,251.346 290.644,244.346 289.5,237.5C 289.771,235.62 289.104,234.287 287.5,233.5C 287.741,229.981 286.407,227.315 283.5,225.5C 283.167,224.5 282.5,223.833 281.5,223.5C 280.55,220.885 278.883,218.885 276.5,217.5C 275.152,215.641 273.985,213.641 273,211.5C 270.606,212.136 268.106,212.136 265.5,211.5C 262.305,209.97 258.805,209.304 255,209.5C 252.31,209.503 249.81,209.836 247.5,210.5C 244.284,210.345 241.617,211.345 239.5,213.5C 237.5,214.167 235.5,214.833 233.5,215.5C 230.05,216.244 228.384,214.91 228.5,211.5C 230.527,211.662 232.527,211.495 234.5,211C 236.54,208.977 238.873,207.31 241.5,206C 245.528,205.608 249.528,205.108 253.5,204.5 Z"/></g>
<g><path style="opacity:1" fill="#a4c397" d="M 247.5,210.5 C 245.5,211.5 243.5,212.5 241.5,213.5C 240.833,213.5 240.167,213.5 239.5,213.5C 241.617,211.345 244.284,210.345 247.5,210.5 Z"/></g>
<g><path style="opacity:1" fill="#ecd5b8" d="M 247.5,210.5 C 249.81,209.836 252.31,209.503 255,209.5C 258.805,209.304 262.305,209.97 265.5,211.5C 262.193,210.949 258.86,210.616 255.5,210.5C 254.833,210.5 254.167,210.5 253.5,210.5C 251.5,210.5 249.5,210.5 247.5,210.5 Z"/></g>
<g><path style="opacity:1" fill="#df9e9b" d="M 263.5,240.5 C 262.423,243.972 260.756,244.305 258.5,241.5C 258.833,241.5 259.167,241.5 259.5,241.5C 260.959,241.567 262.292,241.234 263.5,240.5 Z"/></g>
<g><path style="opacity:1" fill="#cc6a7d" d="M 346.5,226.5 C 348.074,228.102 348.741,230.102 348.5,232.5C 348.5,235.833 348.5,239.167 348.5,242.5C 339.167,242.5 329.833,242.5 320.5,242.5C 319.539,240.735 319.205,238.735 319.5,236.5C 320.451,237.919 320.784,239.585 320.5,241.5C 328.5,241.5 336.5,241.5 344.5,241.5C 345.5,241.5 346.5,241.5 347.5,241.5C 347.084,236.507 346.751,231.507 346.5,226.5 Z"/></g>
<g><path style="opacity:1" fill="#c1ddbc" d="M 163.5,223.5 C 163.658,226.902 163.324,230.236 162.5,233.5C 161.523,236.287 161.19,239.287 161.5,242.5C 170.5,242.5 179.5,242.5 188.5,242.5C 179.348,243.494 170.015,243.827 160.5,243.5C 160.392,238.13 160.725,232.797 161.5,227.5C 162.167,226.167 162.833,224.833 163.5,223.5 Z"/></g>
<g><path style="opacity:1" fill="#edacb8" d="M 348.5,232.5 C 348.833,232.5 349.167,232.5 349.5,232.5C 349.5,236.167 349.5,239.833 349.5,243.5C 339.652,243.827 329.986,243.494 320.5,242.5C 329.833,242.5 339.167,242.5 348.5,242.5C 348.5,239.167 348.5,235.833 348.5,232.5 Z"/></g>
<g><path style="opacity:1" fill="#c6c594" d="M 247.5,239.5 C 248.167,239.833 248.833,240.167 249.5,240.5C 249.5,241.167 249.5,241.833 249.5,242.5C 249.5,242.833 249.5,243.167 249.5,243.5C 247.692,244.918 247.025,246.918 247.5,249.5C 246.698,248.048 246.198,246.382 246,244.5C 245.506,246.134 245.34,247.801 245.5,249.5C 244.378,247.712 244.211,245.712 245,243.5C 246.085,242.264 246.918,240.931 247.5,239.5 Z"/></g>
<g><path style="opacity:1" fill="#f9e4c2" d="M 249.5,243.5 C 249.5,243.167 249.5,242.833 249.5,242.5C 257.604,241.52 259.604,244.52 255.5,251.5C 255.5,248.833 255.5,246.167 255.5,243.5C 253.5,243.5 251.5,243.5 249.5,243.5 Z"/></g>
<g><path style="opacity:1" fill="#f0c476" d="M 249.5,243.5 C 251.5,243.5 253.5,243.5 255.5,243.5C 255.5,246.167 255.5,248.833 255.5,251.5C 255.167,251.5 254.833,251.5 254.5,251.5C 251.612,252.01 249.279,251.344 247.5,249.5C 247.025,246.918 247.692,244.918 249.5,243.5 Z"/></g>
<g><path style="opacity:1" fill="#fdc162" d="M 248.5,244.5 C 250.5,244.5 252.5,244.5 254.5,244.5C 254.5,246.5 254.5,248.5 254.5,250.5C 249.5,251.5 247.5,249.5 248.5,244.5 Z"/></g>
<g><path style="opacity:0.004" fill="#fefffe" d="M 8.5,247.5 C 9.83333,248.167 9.83333,248.167 8.5,247.5 Z"/></g>
<g><path style="opacity:1" fill="#55bdad" d="M 209.5,245.5 C 209.5,246.5 209.5,247.5 209.5,248.5C 205.4,248.763 201.4,248.43 197.5,247.5C 197.5,247.167 197.5,246.833 197.5,246.5C 201.6,246.763 205.6,246.43 209.5,245.5 Z"/></g>
<g><path style="opacity:1" fill="#e8f4e4" d="M 231.5,236.5 C 232.885,237.574 234.051,238.907 235,240.5C 236.232,243.963 237.732,247.297 239.5,250.5C 242.382,256.298 244.382,262.298 245.5,268.5C 245.517,270.565 245.85,272.565 246.5,274.5C 245.5,273.833 244.5,273.167 243.5,272.5C 241.687,265.938 240.187,259.272 239,252.5C 233.321,248.792 230.821,243.458 231.5,236.5 Z"/></g>
<g><path style="opacity:1" fill="#d57070" d="M 310.5,232.5 C 312.745,240.957 313.079,249.623 311.5,258.5C 310.833,259.5 310.167,260.5 309.5,261.5C 310.164,256.527 310.497,251.527 310.5,246.5C 310.5,241.833 310.5,237.167 310.5,232.5 Z"/></g>
<g><path style="opacity:0.004" fill="#fefffe" d="M 85.5,248.5 C 86.8333,249.167 86.8333,249.167 85.5,248.5 Z"/></g>
<g><path style="opacity:1" fill="#b8e9ed" d="M 188.5,249.5 C 179.5,249.5 170.5,249.5 161.5,249.5C 161.5,252.5 161.5,255.5 161.5,258.5C 160.523,255.713 160.19,252.713 160.5,249.5C 169.833,248.167 179.167,248.167 188.5,249.5 Z"/></g>
<g><path style="opacity:1" fill="#9ac9b1" d="M 219.5,234.5 C 218.838,238.466 218.505,242.466 218.5,246.5C 218.5,248.5 218.5,250.5 218.5,252.5C 217.662,252.158 217.328,251.492 217.5,250.5C 217.334,246.154 217.501,241.821 218,237.5C 218.232,236.263 218.732,235.263 219.5,234.5 Z"/></g>
<g><path style="opacity:1" fill="#ebe3bf" d="M 247.5,249.5 C 249.279,251.344 251.612,252.01 254.5,251.5C 252.833,252.167 251.167,252.833 249.5,253.5C 247.938,253.267 246.605,252.6 245.5,251.5C 245.5,250.833 245.5,250.167 245.5,249.5C 245.34,247.801 245.506,246.134 246,244.5C 246.198,246.382 246.698,248.048 247.5,249.5 Z"/></g>
<g><path style="opacity:1" fill="#31b2bd" d="M 188.5,249.5 C 188.996,256.656 190.329,263.656 192.5,270.5C 191.05,269.342 190.05,269.842 189.5,272C 188.167,272.667 186.833,272.667 185.5,272C 185.189,269.412 184.689,266.579 184,263.5C 183.586,263.043 183.086,262.709 182.5,262.5C 181.679,265.447 181.179,268.447 181,271.5C 180.282,272.451 179.449,272.617 178.5,272C 177.703,268.255 177.203,264.421 177,260.5C 176.333,259.167 175.667,257.833 175,256.5C 174.355,257.646 173.522,258.646 172.5,259.5C 173.764,263.153 173.764,266.82 172.5,270.5C 171.789,266.348 170.456,262.514 168.5,259C 169.288,256.243 169.955,253.743 170.5,251.5C 169.675,250.614 168.675,250.281 167.5,250.5C 166.096,255.069 165.596,259.735 166,264.5C 167.063,268.505 168.563,272.172 170.5,275.5C 169.448,275.649 168.448,275.483 167.5,275C 167.026,273.271 166.026,272.105 164.5,271.5C 163.392,267.308 162.392,262.975 161.5,258.5C 161.5,255.5 161.5,252.5 161.5,249.5C 170.5,249.5 179.5,249.5 188.5,249.5 Z"/></g>
<g><path style="opacity:1" fill="#e8f9f9" d="M 243.5,272.5 C 244.5,273.167 245.5,273.833 246.5,274.5C 246.5,275.167 246.167,275.5 245.5,275.5C 234.222,271.223 227.222,263.223 224.5,251.5C 225.29,250.391 225.79,249.058 226,247.5C 226.533,251.356 228.366,254.356 231.5,256.5C 230.675,257.386 229.675,257.719 228.5,257.5C 228.472,259.582 229.139,261.416 230.5,263C 234.456,266.804 238.789,269.971 243.5,272.5 Z"/></g>
<g><path style="opacity:1" fill="#d28c92" d="M 263.5,252.5 C 262.5,252.5 261.5,252.5 260.5,252.5C 260.5,253.833 260.5,255.167 260.5,256.5C 259.503,256.53 258.836,256.03 258.5,255C 259.304,251.928 260.971,251.095 263.5,252.5 Z"/></g>
<g><path style="opacity:1" fill="#43bec6" d="M 196.5,247.5 C 196.833,247.5 197.167,247.5 197.5,247.5C 201.4,248.43 205.4,248.763 209.5,248.5C 210.016,252.709 211.016,256.709 212.5,260.5C 214.443,265.552 216.776,270.385 219.5,275C 216.946,279.055 213.613,282.222 209.5,284.5C 209.672,283.508 209.338,282.842 208.5,282.5C 200.978,272.098 196.978,260.431 196.5,247.5 Z"/></g>
<g><path style="opacity:1" fill="#915b7d" d="M 320.5,306.5 C 314.658,301.491 309.325,295.991 304.5,290C 311.514,280.137 316.514,269.304 319.5,257.5C 320.931,256.22 321.598,254.553 321.5,252.5C 329.259,251.975 337.259,251.975 345.5,252.5C 345.572,256.14 344.239,258.973 341.5,261C 343.053,264.565 342.72,267.899 340.5,271C 342.457,273.121 342.957,275.621 342,278.5C 340.333,279.833 338.667,279.833 337,278.5C 335.25,281.246 334.25,284.246 334,287.5C 330.535,285.607 329.202,286.941 330,291.5C 331.117,291.335 332.284,291.002 333.5,290.5C 333.833,291 334.167,291.5 334.5,292C 331.742,296.333 329.076,300.833 326.5,305.5C 324.604,306.466 322.604,306.799 320.5,306.5 Z"/></g>
<g><path style="opacity:1" fill="#daf7f7" d="M 160.5,249.5 C 160.19,252.713 160.523,255.713 161.5,258.5C 162.392,262.975 163.392,267.308 164.5,271.5C 165.492,274.823 166.492,278.156 167.5,281.5C 166.279,280.972 165.113,280.305 164,279.5C 162.977,273.409 161.643,267.409 160,261.5C 159.188,257.311 159.355,253.311 160.5,249.5 Z"/></g>
<g><path style="opacity:1" fill="#69a76c" d="M 245.5,251.5 C 248.488,257.712 250.321,264.379 251,271.5C 251.934,272.858 252.768,274.192 253.5,275.5C 253.5,275.833 253.5,276.167 253.5,276.5C 253.5,277.5 253.5,278.5 253.5,279.5C 250.991,278.079 248.657,276.412 246.5,274.5C 245.85,272.565 245.517,270.565 245.5,268.5C 245.295,263.728 244.628,259.062 243.5,254.5C 243.285,252.821 243.952,251.821 245.5,251.5 Z"/></g>
<g><path style="opacity:1" fill="#d98085" d="M 297.5,239.5 C 298.492,239.328 299.158,239.662 299.5,240.5C 299.572,246.545 299.072,252.545 298,258.5C 297.33,261.174 296.163,263.507 294.5,265.5C 294.5,264.5 294.5,263.5 294.5,262.5C 297.056,255.109 298.056,247.443 297.5,239.5 Z"/></g>
<g><path style="opacity:1" fill="#b56b7a" d="M 267.5,255.5 C 270.784,257.117 273.451,259.45 275.5,262.5C 273.24,261.861 271.24,260.694 269.5,259C 268.177,258.184 267.511,257.017 267.5,255.5 Z"/></g>
<g><path style="opacity:1" fill="#9cd9da" d="M 209.5,245.5 C 209.833,245.5 210.167,245.5 210.5,245.5C 211.248,250.485 211.915,255.485 212.5,260.5C 211.016,256.709 210.016,252.709 209.5,248.5C 209.5,247.5 209.5,246.5 209.5,245.5 Z"/></g>
<g><path style="opacity:1" fill="#83a681" d="M 239.5,250.5 C 240.496,250.414 241.329,250.748 242,251.5C 242.232,252.737 242.732,253.737 243.5,254.5C 244.628,259.062 245.295,263.728 245.5,268.5C 244.382,262.298 242.382,256.298 239.5,250.5 Z"/></g>
<g><path style="opacity:1" fill="#c96375" d="M 263.5,252.5 C 264.795,253.488 266.128,254.488 267.5,255.5C 267.511,257.017 268.177,258.184 269.5,259C 271.24,260.694 273.24,261.861 275.5,262.5C 275.833,262.5 276.167,262.5 276.5,262.5C 276.5,262.833 276.5,263.167 276.5,263.5C 275.325,263.281 274.325,263.614 273.5,264.5C 276.449,267.98 275.782,270.314 271.5,271.5C 272.278,270.844 272.944,270.011 273.5,269C 268.742,265.285 264.409,261.119 260.5,256.5C 260.5,255.167 260.5,253.833 260.5,252.5C 261.5,252.5 262.5,252.5 263.5,252.5 Z"/></g>
<g><path style="opacity:1" fill="#2fb0b8" d="M 192.5,270.5 C 195.252,277.681 199.252,284.014 204.5,289.5C 204.5,290.167 204.5,290.833 204.5,291.5C 198.004,297.163 192.004,303.329 186.5,310C 185.833,310.667 185.167,310.667 184.5,310C 183.336,307.672 181.67,305.838 179.5,304.5C 175.117,297.003 171.117,289.336 167.5,281.5C 166.492,278.156 165.492,274.823 164.5,271.5C 166.026,272.105 167.026,273.271 167.5,275C 168.448,275.483 169.448,275.649 170.5,275.5C 168.563,272.172 167.063,268.505 166,264.5C 165.596,259.735 166.096,255.069 167.5,250.5C 168.675,250.281 169.675,250.614 170.5,251.5C 169.955,253.743 169.288,256.243 168.5,259C 170.456,262.514 171.789,266.348 172.5,270.5C 173.764,266.82 173.764,263.153 172.5,259.5C 173.522,258.646 174.355,257.646 175,256.5C 175.667,257.833 176.333,259.167 177,260.5C 177.203,264.421 177.703,268.255 178.5,272C 179.449,272.617 180.282,272.451 181,271.5C 181.179,268.447 181.679,265.447 182.5,262.5C 183.086,262.709 183.586,263.043 184,263.5C 184.689,266.579 185.189,269.412 185.5,272C 186.833,272.667 188.167,272.667 189.5,272C 190.05,269.842 191.05,269.342 192.5,270.5 Z"/></g>
<g><path style="opacity:1" fill="#db8389" d="M 283.5,255.5 C 283.442,260.339 281.109,263.005 276.5,263.5C 276.5,263.167 276.5,262.833 276.5,262.5C 277.822,262.67 278.989,262.337 280,261.5C 281.459,259.568 282.625,257.568 283.5,255.5 Z"/></g>
<g><path style="opacity:1" fill="#e7d6e0" d="M 349.5,255.5 C 349.216,258.777 349.549,261.943 350.5,265C 347.803,269.803 345.47,274.636 343.5,279.5C 345.527,271.393 347.527,263.393 349.5,255.5 Z"/></g>
<g><path style="opacity:1" fill="#e35465" d="M 299.5,240.5 C 300.302,241.952 300.802,243.618 301,245.5C 302.343,244.786 303.676,245.12 305,246.5C 306.626,246.146 308.459,246.146 310.5,246.5C 310.497,251.527 310.164,256.527 309.5,261.5C 309.5,262.5 309.5,263.5 309.5,264.5C 308.542,264.953 307.708,265.619 307,266.5C 305.788,270.377 304.121,274.044 302,277.5C 301.667,277.167 301.333,276.833 301,276.5C 300.51,277.793 300.343,279.127 300.5,280.5C 299.5,280.5 298.5,280.5 297.5,280.5C 297.714,276.743 296.714,276.076 294.5,278.5C 293.583,277.873 292.583,277.539 291.5,277.5C 292.76,273.641 293.76,269.641 294.5,265.5C 296.163,263.507 297.33,261.174 298,258.5C 299.072,252.545 299.572,246.545 299.5,240.5 Z"/></g>
<g><path style="opacity:1" fill="#4fabac" d="M 224.5,239.5 C 224.5,243.5 224.5,247.5 224.5,251.5C 227.222,263.223 234.222,271.223 245.5,275.5C 245.185,278.211 245.852,280.544 247.5,282.5C 246.833,282.5 246.167,282.5 245.5,282.5C 236.594,280.557 229.594,275.89 224.5,268.5C 222.693,264.886 220.86,261.22 219,257.5C 218.506,255.866 218.34,254.199 218.5,252.5C 218.5,250.5 218.5,248.5 218.5,246.5C 220.144,246.714 221.644,246.38 223,245.5C 223.191,243.292 223.691,241.292 224.5,239.5 Z"/></g>
<g><path style="opacity:1" fill="#88ab8a" d="M 245.5,251.5 C 246.605,252.6 247.938,253.267 249.5,253.5C 251.212,260.731 252.546,268.065 253.5,275.5C 252.768,274.192 251.934,272.858 251,271.5C 250.321,264.379 248.488,257.712 245.5,251.5 Z"/></g>
<g><path style="opacity:1" fill="#db5b67" d="M 289.5,237.5 C 290.644,244.346 290.644,251.346 289.5,258.5C 287.443,262.267 285.109,265.933 282.5,269.5C 280.554,270.035 279.554,271.368 279.5,273.5C 278.833,273.5 278.5,273.833 278.5,274.5C 275.594,275.108 273.26,276.441 271.5,278.5C 268.458,278.733 265.792,279.733 263.5,281.5C 261.167,281.5 258.833,281.5 256.5,281.5C 256.5,280.167 256.5,278.833 256.5,277.5C 261.079,277.53 265.079,276.196 268.5,273.5C 270.027,273.573 271.027,272.906 271.5,271.5C 275.782,270.314 276.449,267.98 273.5,264.5C 274.325,263.614 275.325,263.281 276.5,263.5C 281.109,263.005 283.442,260.339 283.5,255.5C 284.08,251.19 284.414,246.857 284.5,242.5C 285.404,243.209 285.737,244.209 285.5,245.5C 287.124,245.64 288.29,244.973 289,243.5C 289.495,241.527 289.662,239.527 289.5,237.5 Z"/></g>
<g><path style="opacity:0.004" fill="#fefffe" d="M 106.5,272.5 C 107.833,273.167 107.833,273.167 106.5,272.5 Z"/></g>
<g><path style="opacity:1" fill="#e0f9f9" d="M 195.5,247.5 C 195.833,247.5 196.167,247.5 196.5,247.5C 196.978,260.431 200.978,272.098 208.5,282.5C 205.063,282.23 203.063,280.397 202.5,277C 200.677,276.868 199.677,277.868 199.5,280C 201.823,282.812 203.489,285.978 204.5,289.5C 199.252,284.014 195.252,277.681 192.5,270.5C 190.329,263.656 188.996,256.656 188.5,249.5C 190.844,258.51 193.678,267.51 197,276.5C 198.084,275.335 198.917,274.002 199.5,272.5C 195.895,264.623 194.562,256.289 195.5,247.5 Z"/></g>
<g><path style="opacity:1" fill="#e19a9e" d="M 271.5,271.5 C 271.027,272.906 270.027,273.573 268.5,273.5C 268.973,272.094 269.973,271.427 271.5,271.5 Z"/></g>
<g><path style="opacity:1" fill="#e4a9ae" d="M 282.5,269.5 C 281.974,271.23 280.974,272.564 279.5,273.5C 279.554,271.368 280.554,270.035 282.5,269.5 Z"/></g>
<g><path style="opacity:1" fill="#d2858c" d="M 268.5,273.5 C 265.079,276.196 261.079,277.53 256.5,277.5C 256.5,278.833 256.5,280.167 256.5,281.5C 258.833,281.5 261.167,281.5 263.5,281.5C 260.877,283.265 257.877,283.932 254.5,283.5C 254.5,281.167 254.5,278.833 254.5,276.5C 259.348,276.328 264.015,275.328 268.5,273.5 Z"/></g>
<g><path style="opacity:1" fill="#d18087" d="M 278.5,274.5 C 276.664,276.588 274.331,277.921 271.5,278.5C 273.26,276.441 275.594,275.108 278.5,274.5 Z"/></g>
<g><path style="opacity:1" fill="#f8f4f5" d="M 292.5,194.5 C 294.246,196.252 296.246,197.585 298.5,198.5C 298.5,199.167 298.833,199.5 299.5,199.5C 299.973,200.906 300.973,201.573 302.5,201.5C 302.586,202.496 302.252,203.329 301.5,204C 303.417,206.122 305.417,207.955 307.5,209.5C 309.326,211.147 310.66,213.147 311.5,215.5C 311.738,217.404 312.738,218.738 314.5,219.5C 314.259,221.898 314.926,223.898 316.5,225.5C 316.723,229.162 317.723,232.495 319.5,235.5C 319.5,235.833 319.5,236.167 319.5,236.5C 319.205,238.735 319.539,240.735 320.5,242.5C 329.986,243.494 339.652,243.827 349.5,243.5C 347.708,244.309 345.708,244.809 343.5,245C 344.833,245.667 344.833,246.333 343.5,247C 345.368,247.004 347.202,246.504 349,245.5C 349.5,245.833 350,246.167 350.5,246.5C 350.519,249.319 350.852,252.153 351.5,255C 350.906,255.464 350.239,255.631 349.5,255.5C 349.5,253.5 349.5,251.5 349.5,249.5C 339.5,249.5 329.5,249.5 319.5,249.5C 319.5,252.167 319.5,254.833 319.5,257.5C 316.514,269.304 311.514,280.137 304.5,290C 309.325,295.991 314.658,301.491 320.5,306.5C 320.712,308.384 321.712,309.717 323.5,310.5C 326.215,308.452 328.548,306.118 330.5,303.5C 330.148,310.485 326.148,313.818 318.5,313.5C 312.24,307.577 305.906,301.577 299.5,295.5C 289.738,304.046 278.405,309.38 265.5,311.5C 262.833,311.833 260.167,312.167 257.5,312.5C 257.333,328.17 257.5,343.837 258,359.5C 260.437,356.28 262.603,352.947 264.5,349.5C 267.268,347.913 269.935,346.08 272.5,344C 283.338,339.412 294.004,334.579 304.5,329.5C 305.798,328.884 306.798,328.884 307.5,329.5C 300.147,338.022 291.481,344.855 281.5,350C 274.615,355.605 267.948,361.439 261.5,367.5C 261.649,366.448 261.483,365.448 261,364.5C 259.602,365.051 258.268,365.384 257,365.5C 256.333,364.833 255.667,364.167 255,363.5C 254.774,359.113 254.274,354.779 253.5,350.5C 254.383,349.452 255.05,348.285 255.5,347C 254.399,344.965 253.732,342.798 253.5,340.5C 253.315,332.208 253.648,323.874 254.5,315.5C 254.043,314.702 253.376,314.369 252.5,314.5C 252.672,313.508 252.338,312.842 251.5,312.5C 251.62,311.414 252.287,310.747 253.5,310.5C 258.135,311.442 262.135,310.109 265.5,306.5C 262.139,306.129 258.472,305.796 254.5,305.5C 254.5,305.167 254.5,304.833 254.5,304.5C 254.833,304.5 255.167,304.5 255.5,304.5C 264.029,304.133 272.029,302.133 279.5,298.5C 284.022,297.411 287.689,295.078 290.5,291.5C 292.686,291.489 293.519,290.489 293,288.5C 289.985,285.317 286.818,282.317 283.5,279.5C 274.8,286.733 264.8,290.4 253.5,290.5C 250.833,290.5 248.167,290.5 245.5,290.5C 244.167,289.833 242.833,289.167 241.5,288.5C 240.653,287.034 239.32,286.2 237.5,286C 242.936,284.989 248.27,284.156 253.5,283.5C 253.833,283.5 254.167,283.5 254.5,283.5C 257.877,283.932 260.877,283.265 263.5,281.5C 266.542,281.267 269.208,280.267 271.5,278.5C 274.331,277.921 276.664,276.588 278.5,274.5C 278.5,273.833 278.833,273.5 279.5,273.5C 280.974,272.564 281.974,271.23 282.5,269.5C 285.109,265.933 287.443,262.267 289.5,258.5C 289.539,259.583 289.873,260.583 290.5,261.5C 288.995,262.842 288.328,264.508 288.5,266.5C 289.552,266.649 290.552,266.483 291.5,266C 291.974,264.271 292.974,263.105 294.5,262.5C 294.5,263.5 294.5,264.5 294.5,265.5C 291.29,268.519 289.79,272.186 290,276.5C 290.383,277.056 290.883,277.389 291.5,277.5C 292.5,278.833 293.5,280.167 294.5,281.5C 295.877,284.726 297.543,285.059 299.5,282.5C 303.67,277.329 307.004,271.662 309.5,265.5C 310.924,263.485 311.59,261.152 311.5,258.5C 313.079,249.623 312.745,240.957 310.5,232.5C 310.167,231.833 309.833,231.167 309.5,230.5C 309.741,228.102 309.074,226.102 307.5,224.5C 306.492,222.456 305.492,220.456 304.5,218.5C 304.443,217.391 304.11,216.391 303.5,215.5C 303.263,211.011 300.93,209.011 296.5,209.5C 296.5,207.5 296.5,205.5 296.5,203.5C 292.767,202.836 289.767,200.836 287.5,197.5C 288.421,195.244 290.088,194.244 292.5,194.5 Z"/></g>
<g><path style="opacity:1" fill="#d06a76" d="M 294.5,265.5 C 293.76,269.641 292.76,273.641 291.5,277.5C 290.883,277.389 290.383,277.056 290,276.5C 289.79,272.186 291.29,268.519 294.5,265.5 Z"/></g>
<g><path style="opacity:1" fill="#f3c9ca" d="M 311.5,258.5 C 311.59,261.152 310.924,263.485 309.5,265.5C 309.5,265.167 309.5,264.833 309.5,264.5C 309.5,263.5 309.5,262.5 309.5,261.5C 310.167,260.5 310.833,259.5 311.5,258.5 Z"/></g>
<g><path style="opacity:1" fill="#d66373" d="M 309.5,264.5 C 309.5,264.833 309.5,265.167 309.5,265.5C 307.004,271.662 303.67,277.329 299.5,282.5C 297.784,282.371 296.117,282.038 294.5,281.5C 293.5,280.167 292.5,278.833 291.5,277.5C 292.583,277.539 293.583,277.873 294.5,278.5C 296.714,276.076 297.714,276.743 297.5,280.5C 298.5,280.5 299.5,280.5 300.5,280.5C 300.343,279.127 300.51,277.793 301,276.5C 301.333,276.833 301.667,277.167 302,277.5C 304.121,274.044 305.788,270.377 307,266.5C 307.708,265.619 308.542,264.953 309.5,264.5 Z"/></g>
<g><path style="opacity:1" fill="#e8f8f8" d="M 213.5,230.5 C 212.338,236.127 211.838,241.794 212,247.5C 212.163,249.676 212.996,251.509 214.5,253C 216.061,253.188 216.728,252.355 216.5,250.5C 216.833,250.5 217.167,250.5 217.5,250.5C 217.328,251.492 217.662,252.158 218.5,252.5C 218.34,254.199 218.506,255.866 219,257.5C 220.86,261.22 222.693,264.886 224.5,268.5C 229.594,275.89 236.594,280.557 245.5,282.5C 247.948,283.473 250.615,283.806 253.5,283.5C 248.27,284.156 242.936,284.989 237.5,286C 239.32,286.2 240.653,287.034 241.5,288.5C 240.127,288.657 238.793,288.49 237.5,288C 233.014,285.662 228.681,283.162 224.5,280.5C 221.257,282.235 218.423,284.568 216,287.5C 215.387,289.495 215.887,291.162 217.5,292.5C 216.5,292.5 215.5,292.5 214.5,292.5C 214.5,290.167 214.5,287.833 214.5,285.5C 212.585,285.784 210.919,285.451 209.5,284.5C 213.613,282.222 216.946,279.055 219.5,275C 216.776,270.385 214.443,265.552 212.5,260.5C 211.915,255.485 211.248,250.485 210.5,245.5C 209.982,240.073 210.982,235.073 213.5,230.5 Z"/></g>
<g><path style="opacity:1" fill="#f8f9f6" d="M 224.5,268.5 C 224.913,270.89 225.579,273.223 226.5,275.5C 229.701,276.379 232.368,278.045 234.5,280.5C 232.081,281.895 230.081,281.395 228.5,279C 226.19,278.503 223.857,278.337 221.5,278.5C 222.368,275.269 222.368,271.935 221.5,268.5C 222.5,268.5 223.5,268.5 224.5,268.5 Z"/></g>
<g><path style="opacity:0.004" fill="#fefffe" d="M 464.5,279.5 C 465.833,280.167 465.833,280.167 464.5,279.5 Z"/></g>
<g><path style="opacity:0.004" fill="#fefffe" d="M 104.5,280.5 C 105.833,281.167 105.833,281.167 104.5,280.5 Z"/></g>
<g><path style="opacity:1" fill="#c66d77" d="M 271.5,278.5 C 269.208,280.267 266.542,281.267 263.5,281.5C 265.792,279.733 268.458,278.733 271.5,278.5 Z"/></g>
<g><path style="opacity:1" fill="#43a89a" d="M 246.5,274.5 C 248.657,276.412 250.991,278.079 253.5,279.5C 253.5,280.5 253.5,281.5 253.5,282.5C 251.5,282.5 249.5,282.5 247.5,282.5C 245.852,280.544 245.185,278.211 245.5,275.5C 246.167,275.5 246.5,275.167 246.5,274.5 Z"/></g>
<g><path style="opacity:1" fill="#92b9b5" d="M 253.5,276.5 C 253.833,276.5 254.167,276.5 254.5,276.5C 254.5,278.833 254.5,281.167 254.5,283.5C 254.167,283.5 253.833,283.5 253.5,283.5C 250.615,283.806 247.948,283.473 245.5,282.5C 246.167,282.5 246.833,282.5 247.5,282.5C 249.5,282.5 251.5,282.5 253.5,282.5C 253.5,281.5 253.5,280.5 253.5,279.5C 253.5,278.5 253.5,277.5 253.5,276.5 Z"/></g>
<g><path style="opacity:1" fill="#c97783" d="M 294.5,281.5 C 296.117,282.038 297.784,282.371 299.5,282.5C 297.543,285.059 295.877,284.726 294.5,281.5 Z"/></g>
<g><path style="opacity:1" fill="#8f5e7a" d="M 349.5,255.5 C 347.527,263.393 345.527,271.393 343.5,279.5C 340.074,287.943 335.741,295.943 330.5,303.5C 328.548,306.118 326.215,308.452 323.5,310.5C 321.712,309.717 320.712,308.384 320.5,306.5C 322.604,306.799 324.604,306.466 326.5,305.5C 329.076,300.833 331.742,296.333 334.5,292C 334.167,291.5 333.833,291 333.5,290.5C 332.284,291.002 331.117,291.335 330,291.5C 329.202,286.941 330.535,285.607 334,287.5C 334.25,284.246 335.25,281.246 337,278.5C 338.667,279.833 340.333,279.833 342,278.5C 342.957,275.621 342.457,273.121 340.5,271C 342.72,267.899 343.053,264.565 341.5,261C 344.239,258.973 345.572,256.14 345.5,252.5C 337.259,251.975 329.259,251.975 321.5,252.5C 321.598,254.553 320.931,256.22 319.5,257.5C 319.5,254.833 319.5,252.167 319.5,249.5C 329.5,249.5 339.5,249.5 349.5,249.5C 349.5,251.5 349.5,253.5 349.5,255.5 Z"/></g>
<g><path style="opacity:1" fill="#895c77" d="M 290.5,291.5 C 290.5,290.167 290.5,288.833 290.5,287.5C 288.723,287.786 287.056,288.453 285.5,289.5C 278.93,286.133 275.597,288.133 275.5,295.5C 274.167,295.5 272.833,295.5 271.5,295.5C 271.5,294.167 271.5,292.833 271.5,291.5C 266.846,292.329 262.18,293.163 257.5,294C 256.556,296.719 256.223,299.552 256.5,302.5C 264.001,300.442 271.668,299.109 279.5,298.5C 272.029,302.133 264.029,304.133 255.5,304.5C 256.097,299.706 255.43,295.373 253.5,291.5C 253.5,291.167 253.5,290.833 253.5,290.5C 264.8,290.4 274.8,286.733 283.5,279.5C 286.818,282.317 289.985,285.317 293,288.5C 293.519,290.489 292.686,291.489 290.5,291.5 Z"/></g>
<g><path style="opacity:1" fill="#3fadb8" d="M 241.5,288.5 C 242.833,289.167 244.167,289.833 245.5,290.5C 240.947,290.059 236.28,290.059 231.5,290.5C 232.991,291.244 234.491,291.91 236,292.5C 236.612,294.237 235.946,295.237 234,295.5C 231.139,293.602 227.973,292.602 224.5,292.5C 224.5,293.833 224.5,295.167 224.5,296.5C 226.199,296.34 227.866,296.506 229.5,297C 232.187,298.049 234.52,299.549 236.5,301.5C 229.488,299.835 223.154,296.835 217.5,292.5C 215.887,291.162 215.387,289.495 216,287.5C 218.423,284.568 221.257,282.235 224.5,280.5C 228.681,283.162 233.014,285.662 237.5,288C 238.793,288.49 240.127,288.657 241.5,288.5 Z"/></g>
<g><path style="opacity:1" fill="#8b5878" d="M 290.5,291.5 C 287.689,295.078 284.022,297.411 279.5,298.5C 271.668,299.109 264.001,300.442 256.5,302.5C 256.223,299.552 256.556,296.719 257.5,294C 262.18,293.163 266.846,292.329 271.5,291.5C 271.5,292.833 271.5,294.167 271.5,295.5C 272.833,295.5 274.167,295.5 275.5,295.5C 275.597,288.133 278.93,286.133 285.5,289.5C 287.056,288.453 288.723,287.786 290.5,287.5C 290.5,288.833 290.5,290.167 290.5,291.5 Z"/></g>
<g><path style="opacity:0.004" fill="#fefffe" d="M 454.5,294.5 C 455.833,295.167 455.833,295.167 454.5,294.5 Z"/></g>
<g><path style="opacity:1" fill="#e5f8f7" d="M 204.5,291.5 C 204.64,293.124 203.973,294.29 202.5,295C 206.063,295.062 209.563,294.562 213,293.5C 213.738,296.648 215.238,299.315 217.5,301.5C 215.938,301.267 214.605,300.6 213.5,299.5C 211.413,295.193 208.746,294.693 205.5,298C 200.333,303.167 195.167,308.333 190,313.5C 189.51,314.793 189.343,316.127 189.5,317.5C 188.153,316.829 186.986,316.829 186,317.5C 185.508,316.451 185.674,315.451 186.5,314.5C 185.164,311.528 183.664,311.195 182,313.5C 181.799,310.247 180.966,307.247 179.5,304.5C 181.67,305.838 183.336,307.672 184.5,310C 185.167,310.667 185.833,310.667 186.5,310C 192.004,303.329 198.004,297.163 204.5,291.5 Z"/></g>
<g><path style="opacity:1" fill="#33a5b3" d="M 245.5,290.5 C 248.167,290.5 250.833,290.5 253.5,290.5C 253.5,290.833 253.5,291.167 253.5,291.5C 253.5,295.833 253.5,300.167 253.5,304.5C 247.439,305.003 241.773,304.003 236.5,301.5C 234.52,299.549 232.187,298.049 229.5,297C 227.866,296.506 226.199,296.34 224.5,296.5C 224.5,295.167 224.5,293.833 224.5,292.5C 227.973,292.602 231.139,293.602 234,295.5C 235.946,295.237 236.612,294.237 236,292.5C 234.491,291.91 232.991,291.244 231.5,290.5C 236.28,290.059 240.947,290.059 245.5,290.5 Z"/></g>
<g><path style="opacity:1" fill="#538a9d" d="M 253.5,291.5 C 255.43,295.373 256.097,299.706 255.5,304.5C 255.167,304.5 254.833,304.5 254.5,304.5C 254.167,304.5 253.833,304.5 253.5,304.5C 253.5,300.167 253.5,295.833 253.5,291.5 Z"/></g>
<g><path style="opacity:0.004" fill="#fefffe" d="M 91.5,300.5 C 92.8333,301.167 92.8333,301.167 91.5,300.5 Z"/></g>
<g><path style="opacity:1" fill="#e1f9fa" d="M 217.5,292.5 C 223.154,296.835 229.488,299.835 236.5,301.5C 241.773,304.003 247.439,305.003 253.5,304.5C 253.833,304.5 254.167,304.5 254.5,304.5C 254.5,304.833 254.5,305.167 254.5,305.5C 253.849,306.091 253.182,306.757 252.5,307.5C 241.671,305.495 231.171,302.162 221,297.5C 219.225,296.23 218.058,294.564 217.5,292.5 Z"/></g>
<g><path style="opacity:0.004" fill="#fefffe" d="M 375.5,300.5 C 376.833,301.167 376.833,301.167 375.5,300.5 Z"/></g>
<g><path style="opacity:1" fill="#c7eef2" d="M 217.5,301.5 C 222.14,301.825 225.806,303.825 228.5,307.5C 224.055,306.78 220.388,304.78 217.5,301.5 Z"/></g>
<g><path style="opacity:1" fill="#259eae" d="M 213.5,299.5 C 214.605,300.6 215.938,301.267 217.5,301.5C 220.388,304.78 224.055,306.78 228.5,307.5C 230.297,308.73 232.297,309.396 234.5,309.5C 236.515,310.924 238.848,311.59 241.5,311.5C 242.708,312.234 244.041,312.567 245.5,312.5C 246.919,313.451 248.585,313.784 250.5,313.5C 250.5,315.5 250.5,317.5 250.5,319.5C 249.596,318.791 249.263,317.791 249.5,316.5C 246.262,314.641 242.595,313.308 238.5,312.5C 233.533,312.988 228.866,314.321 224.5,316.5C 221.628,314.146 218.295,312.646 214.5,312C 213.789,310.745 212.956,309.579 212,308.5C 211.365,310.635 211.699,312.635 213,314.5C 215.146,315.376 216.979,316.709 218.5,318.5C 216.166,319.334 214.166,320.667 212.5,322.5C 211.808,320.585 210.475,318.585 208.5,316.5C 207.494,316.938 207.494,317.604 208.5,318.5C 206.51,319.498 204.51,320.498 202.5,321.5C 202.167,321 201.833,320.5 201.5,320C 204.42,313.206 203.42,312.706 198.5,318.5C 197.142,319.626 195.808,319.626 194.5,318.5C 194.709,317.914 195.043,317.414 195.5,317C 194.167,317 192.833,317 191.5,317C 196.706,308.555 204.039,302.722 213.5,299.5 Z"/></g>
<g><path style="opacity:1" fill="#f5f9f9" d="M 208.5,282.5 C 209.338,282.842 209.672,283.508 209.5,284.5C 210.919,285.451 212.585,285.784 214.5,285.5C 214.5,287.833 214.5,290.167 214.5,292.5C 215.5,292.5 216.5,292.5 217.5,292.5C 218.058,294.564 219.225,296.23 221,297.5C 231.171,302.162 241.671,305.495 252.5,307.5C 253.182,306.757 253.849,306.091 254.5,305.5C 258.472,305.796 262.139,306.129 265.5,306.5C 262.135,310.109 258.135,311.442 253.5,310.5C 252.287,310.747 251.62,311.414 251.5,312.5C 249.5,312.5 247.5,312.5 245.5,312.5C 244.041,312.567 242.708,312.234 241.5,311.5C 239.485,310.076 237.152,309.41 234.5,309.5C 232.297,309.396 230.297,308.73 228.5,307.5C 225.806,303.825 222.14,301.825 217.5,301.5C 215.238,299.315 213.738,296.648 213,293.5C 209.563,294.562 206.063,295.062 202.5,295C 203.973,294.29 204.64,293.124 204.5,291.5C 204.5,290.833 204.5,290.167 204.5,289.5C 203.489,285.978 201.823,282.812 199.5,280C 199.677,277.868 200.677,276.868 202.5,277C 203.063,280.397 205.063,282.23 208.5,282.5 Z"/></g>
<g><path style="opacity:0.004" fill="#fefffe" d="M 22.5,308.5 C 23.8333,309.167 23.8333,309.167 22.5,308.5 Z"/></g>
<g><path style="opacity:1" fill="#a3d5dd" d="M 234.5,309.5 C 237.152,309.41 239.485,310.076 241.5,311.5C 238.848,311.59 236.515,310.924 234.5,309.5 Z"/></g>
<g><path style="opacity:0.004" fill="#fefffe" d="M 11.5,313.5 C 12.8333,314.167 12.8333,314.167 11.5,313.5 Z"/></g>
<g><path style="opacity:0.004" fill="#fefffe" d="M 71.5,314.5 C 72.8333,315.167 72.8333,315.167 71.5,314.5 Z"/></g>
<g><path style="opacity:1" fill="#2298ab" d="M 249.5,316.5 C 248.292,315.766 246.959,315.433 245.5,315.5C 243.664,322.368 243.164,329.368 244,336.5C 244.333,336.833 244.667,337.167 245,337.5C 245.17,331.804 245.67,326.138 246.5,320.5C 247.307,328.166 247.973,335.833 248.5,343.5C 246.833,343.5 245.167,343.5 243.5,343.5C 243.5,344.833 243.5,346.167 243.5,347.5C 241.301,345.898 239.301,344.064 237.5,342C 235.112,341.697 232.945,340.863 231,339.5C 230.329,340.252 229.496,340.586 228.5,340.5C 225.954,336.751 222.287,334.918 217.5,335C 211.882,331.039 206.216,327.372 200.5,324C 199.833,322.667 198.833,321.667 197.5,321C 198.252,320.329 198.586,319.496 198.5,318.5C 203.42,312.706 204.42,313.206 201.5,320C 201.833,320.5 202.167,321 202.5,321.5C 204.51,320.498 206.51,319.498 208.5,318.5C 207.494,317.604 207.494,316.938 208.5,316.5C 210.475,318.585 211.808,320.585 212.5,322.5C 214.166,320.667 216.166,319.334 218.5,318.5C 216.979,316.709 215.146,315.376 213,314.5C 211.699,312.635 211.365,310.635 212,308.5C 212.956,309.579 213.789,310.745 214.5,312C 218.295,312.646 221.628,314.146 224.5,316.5C 228.866,314.321 233.533,312.988 238.5,312.5C 242.595,313.308 246.262,314.641 249.5,316.5 Z"/></g>
<g><path style="opacity:1" fill="#44a3ac" d="M 213.5,299.5 C 204.039,302.722 196.706,308.555 191.5,317C 192.833,317 194.167,317 195.5,317C 195.043,317.414 194.709,317.914 194.5,318.5C 195.808,319.626 197.142,319.626 198.5,318.5C 198.586,319.496 198.252,320.329 197.5,321C 198.833,321.667 199.833,322.667 200.5,324C 206.216,327.372 211.882,331.039 217.5,335C 222.287,334.918 225.954,336.751 228.5,340.5C 226.883,339.962 225.216,339.629 223.5,339.5C 210.908,334.198 199.575,326.865 189.5,317.5C 189.343,316.127 189.51,314.793 190,313.5C 195.167,308.333 200.333,303.167 205.5,298C 208.746,294.693 211.413,295.193 213.5,299.5 Z"/></g>
<g><path style="opacity:0.369" fill="#c0b5ba" d="M 319.5,317.5 C 319.443,318.609 319.11,319.609 318.5,320.5C 314.543,323.122 310.876,326.122 307.5,329.5C 306.798,328.884 305.798,328.884 304.5,329.5C 309.476,325.53 314.476,321.53 319.5,317.5 Z"/></g>
<g><path style="opacity:1" fill="#615869" d="M 318.5,313.5 C 319.234,314.708 319.567,316.041 319.5,317.5C 314.476,321.53 309.476,325.53 304.5,329.5C 294.004,334.579 283.338,339.412 272.5,344C 269.935,346.08 267.268,347.913 264.5,349.5C 262.5,350.167 260.5,350.833 258.5,351.5C 258.5,338.833 258.5,326.167 258.5,313.5C 261.388,314.01 263.721,313.344 265.5,311.5C 278.405,309.38 289.738,304.046 299.5,295.5C 305.906,301.577 312.24,307.577 318.5,313.5 Z"/></g>
<g><path style="opacity:1" fill="#def9fa" d="M 189.5,317.5 C 199.575,326.865 210.908,334.198 223.5,339.5C 221.473,339.662 219.473,339.495 217.5,339C 213.303,336.402 208.97,334.069 204.5,332C 200.697,328.597 196.697,325.43 192.5,322.5C 191.048,321.06 190.048,319.394 189.5,317.5 Z"/></g>
<g><path style="opacity:1" fill="#2491ab" d="M 249.5,316.5 C 249.263,317.791 249.596,318.791 250.5,319.5C 250.667,331.505 250.5,343.505 250,355.5C 248.255,353.911 247.088,351.911 246.5,349.5C 244.604,350.639 243.604,349.973 243.5,347.5C 243.5,346.167 243.5,344.833 243.5,343.5C 245.167,343.5 246.833,343.5 248.5,343.5C 247.973,335.833 247.307,328.166 246.5,320.5C 245.67,326.138 245.17,331.804 245,337.5C 244.667,337.167 244.333,336.833 244,336.5C 243.164,329.368 243.664,322.368 245.5,315.5C 246.959,315.433 248.292,315.766 249.5,316.5 Z"/></g>
<g><path style="opacity:1" fill="#706c74" d="M 265.5,311.5 C 263.721,313.344 261.388,314.01 258.5,313.5C 258.5,326.167 258.5,338.833 258.5,351.5C 260.5,350.833 262.5,350.167 264.5,349.5C 262.603,352.947 260.437,356.28 258,359.5C 257.5,343.837 257.333,328.17 257.5,312.5C 260.167,312.167 262.833,311.833 265.5,311.5 Z"/></g>
<g><path style="opacity:1" fill="#b9dde4" d="M 251.5,312.5 C 252.338,312.842 252.672,313.508 252.5,314.5C 252.833,331.18 252.499,347.847 251.5,364.5C 250.893,364.376 250.56,364.043 250.5,363.5C 251.497,346.675 251.83,329.675 251.5,312.5 Z"/></g>
<g><path style="opacity:0.004" fill="#fefffe" d="M 44.5,340.5 C 45.8333,341.167 45.8333,341.167 44.5,340.5 Z"/></g>
<g><path style="opacity:0.004" fill="#fefffe" d="M 125.5,343.5 C 126.833,344.167 126.833,344.167 125.5,343.5 Z"/></g>
<g><path style="opacity:1" fill="#4496a5" d="M 245.5,312.5 C 247.5,312.5 249.5,312.5 251.5,312.5C 251.83,329.675 251.497,346.675 250.5,363.5C 250.34,361.847 249.674,360.514 248.5,359.5C 246.622,353.624 242.955,349.291 237.5,346.5C 234.672,344.252 231.672,342.252 228.5,340.5C 229.496,340.586 230.329,340.252 231,339.5C 232.945,340.863 235.112,341.697 237.5,342C 239.301,344.064 241.301,345.898 243.5,347.5C 243.604,349.973 244.604,350.639 246.5,349.5C 247.088,351.911 248.255,353.911 250,355.5C 250.5,343.505 250.667,331.505 250.5,319.5C 250.5,317.5 250.5,315.5 250.5,313.5C 248.585,313.784 246.919,313.451 245.5,312.5 Z"/></g>
<g><path style="opacity:0.004" fill="#fefffe" d="M 348.5,352.5 C 349.833,353.167 349.833,353.167 348.5,352.5 Z"/></g>
<g><path style="opacity:0.004" fill="#fefffe" d="M 405.5,355.5 C 406.833,356.167 406.833,356.167 405.5,355.5 Z"/></g>
<g><path style="opacity:1" fill="#dff7f8" d="M 237.5,346.5 C 242.955,349.291 246.622,353.624 248.5,359.5C 245.108,358.436 243.108,356.103 242.5,352.5C 241.914,352.709 241.414,353.043 241,353.5C 240.011,351.03 238.845,348.697 237.5,346.5 Z"/></g>
<g><path style="opacity:0.004" fill="#fefffe" d="M 159.5,358.5 C 160.833,359.167 160.833,359.167 159.5,358.5 Z"/></g>
<g><path style="opacity:0.004" fill="#fefffe" d="M 169.5,372.5 C 170.833,373.167 170.833,373.167 169.5,372.5 Z"/></g>
<g><path style="opacity:0.004" fill="#fefffe" d="M 396.5,374.5 C 397.833,375.167 397.833,375.167 396.5,374.5 Z"/></g>
<g><path style="opacity:0.004" fill="#fefffe" d="M 411.5,375.5 C 412.833,376.167 412.833,376.167 411.5,375.5 Z"/></g>
<g><path style="opacity:0.004" fill="#fefffe" d="M 432.5,377.5 C 433.833,378.167 433.833,378.167 432.5,377.5 Z"/></g>
<g><path style="opacity:0.004" fill="#fefffe" d="M 12.5,378.5 C 13.8333,379.167 13.8333,379.167 12.5,378.5 Z"/></g>
<g><path style="opacity:0.004" fill="#fefffe" d="M 124.5,383.5 C 125.833,384.167 125.833,384.167 124.5,383.5 Z"/></g>
<g><path style="opacity:0.004" fill="#fefffe" d="M 374.5,391.5 C 375.833,392.167 375.833,392.167 374.5,391.5 Z"/></g>
<g><path style="opacity:0.004" fill="#fefffe" d="M 402.5,391.5 C 403.833,392.167 403.833,392.167 402.5,391.5 Z"/></g>
<g><path style="opacity:0.004" fill="#fefffe" d="M 411.5,392.5 C 412.833,393.167 412.833,393.167 411.5,392.5 Z"/></g>
<g><path style="opacity:0.004" fill="#fefffd" d="M 41.5,397.5 C 42.8333,398.167 42.8333,398.167 41.5,397.5 Z"/></g>
<g><path style="opacity:0.004" fill="#fefffe" d="M 93.5,404.5 C 94.8333,405.167 94.8333,405.167 93.5,404.5 Z"/></g>
<g><path style="opacity:0.004" fill="#fefffe" d="M 239.5,412.5 C 240.833,413.167 240.833,413.167 239.5,412.5 Z"/></g>
<g><path style="opacity:0.004" fill="#fefffe" d="M 62.5,421.5 C 63.8333,422.167 63.8333,422.167 62.5,421.5 Z"/></g>
<g><path style="opacity:0.004" fill="#fefffe" d="M 139.5,436.5 C 140.833,437.167 140.833,437.167 139.5,436.5 Z"/></g>
<g><path style="opacity:0.004" fill="#fefffe" d="M 79.5,437.5 C 80.8333,438.167 80.8333,438.167 79.5,437.5 Z"/></g>
<g><path style="opacity:0.004" fill="#fefffe" d="M 109.5,441.5 C 110.833,442.167 110.833,442.167 109.5,441.5 Z"/></g>
<g><path style="opacity:0.004" fill="#fefffe" d="M 442.5,442.5 C 443.833,443.167 443.833,443.167 442.5,442.5 Z"/></g>
<g><path style="opacity:0.004" fill="#fefffe" d="M 331.5,444.5 C 332.833,445.167 332.833,445.167 331.5,444.5 Z"/></g>
<g><path style="opacity:0.004" fill="#fefffe" d="M 97.5,455.5 C 98.8333,456.167 98.8333,456.167 97.5,455.5 Z"/></g>
<g><path style="opacity:0.004" fill="#fefffe" d="M 465.5,457.5 C 466.833,458.167 466.833,458.167 465.5,457.5 Z"/></g>
<g><path style="opacity:0.004" fill="#fefffe" d="M 15.5,466.5 C 16.8333,467.167 16.8333,467.167 15.5,466.5 Z"/></g>
<g><path style="opacity:0.004" fill="#fefffe" d="M 496.5,466.5 C 497.833,467.167 497.833,467.167 496.5,466.5 Z"/></g>
<g><path style="opacity:0.004" fill="#fefffe" d="M 54.5,470.5 C 55.8333,471.167 55.8333,471.167 54.5,470.5 Z"/></g>
</svg>
